<?xml version="1.0" encoding="UTF-8" standalone="no"?>
<!DOCTYPE svg PUBLIC "-//W3C//DTD SVG 1.1//EN"
 "http://www.w3.org/Graphics/SVG/1.1/DTD/svg11.dtd">
<!-- Generated by graphviz version 12.2.0 (20241103.1931)
 -->
<!-- Title: BlackJackGame.h Pages: 1 -->
<svg width="544pt" height="196pt"
 viewBox="0.00 0.00 543.86 196.00" xmlns="http://www.w3.org/2000/svg" xmlns:xlink="http://www.w3.org/1999/xlink">
<g id="graph0" class="graph" transform="scale(1 1) rotate(0) translate(4 192)">
<title>BlackJackGame.h</title>
<!-- Node1 -->
<g id="Node000001" class="node">
<title>Node1</title>
<g id="a_Node000001"><a xlink:title="Main game controller class for Blackjack card game.">
<polygon fill="#999999" stroke="#666666" points="314.61,-188 218.36,-188 218.36,-168 314.61,-168 314.61,-188"/>
<text text-anchor="middle" x="266.49" y="-174.5" font-family="Helvetica,sans-Serif" font-size="10.00">BlackJackGame.h</text>
</a>
</g>
</g>
<!-- Node2 -->
<g id="Node000002" class="node">
<title>Node2</title>
<g id="a_Node000002"><a xlink:href="_deck_8h.html" target="_top" xlink:title="Template class for a card deck implementation.">
<polygon fill="white" stroke="#666666" points="324.24,-132 276.74,-132 276.74,-112 324.24,-112 324.24,-132"/>
<text text-anchor="middle" x="300.49" y="-118.5" font-family="Helvetica,sans-Serif" font-size="10.00">Deck.h</text>
</a>
</g>
</g>
<!-- Node1&#45;&gt;Node2 -->
<g id="edge1_Node000001_Node000002" class="edge">
<title>Node1&#45;&gt;Node2</title>
<g id="a_edge1_Node000001_Node000002"><a xlink:title=" ">
<path fill="none" stroke="#63b8ff" d="M272.41,-167.59C276.85,-160.55 283.07,-150.67 288.53,-142"/>
<polygon fill="#63b8ff" stroke="#63b8ff" points="291.46,-143.91 293.83,-133.58 285.54,-140.18 291.46,-143.91"/>
</a>
</g>
</g>
<!-- Node10 -->
<g id="Node000010" class="node">
<title>Node10</title>
<g id="a_Node000010"><a xlink:href="_player_8h.html" target="_top" xlink:title="Base player class and derived player types for blackjack.">
<polygon fill="white" stroke="#666666" points="258.49,-132 206.49,-132 206.49,-112 258.49,-112 258.49,-132"/>
<text text-anchor="middle" x="232.49" y="-118.5" font-family="Helvetica,sans-Serif" font-size="10.00">Player.h</text>
</a>
</g>
</g>
<!-- Node1&#45;&gt;Node10 -->
<g id="edge9_Node000001_Node000010" class="edge">
<title>Node1&#45;&gt;Node10</title>
<g id="a_edge9_Node000001_Node000010"><a xlink:title=" ">
<path fill="none" stroke="#63b8ff" d="M260.57,-167.59C256.13,-160.55 249.91,-150.67 244.45,-142"/>
<polygon fill="#63b8ff" stroke="#63b8ff" points="247.44,-140.18 239.15,-133.58 241.52,-143.91 247.44,-140.18"/>
</a>
</g>
</g>
<!-- Node12 -->
<g id="Node000012" class="node">
<title>Node12</title>
<g id="a_Node000012"><a xlink:href="_save_game_8h.html" target="_top" xlink:title="Game state implementation.">
<polygon fill="white" stroke="#666666" points="74.99,-132 1.99,-132 1.99,-112 74.99,-112 74.99,-132"/>
<text text-anchor="middle" x="38.49" y="-118.5" font-family="Helvetica,sans-Serif" font-size="10.00">SaveGame.h</text>
</a>
</g>
</g>
<!-- Node1&#45;&gt;Node12 -->
<g id="edge15_Node000001_Node000012" class="edge">
<title>Node1&#45;&gt;Node12</title>
<g id="a_edge15_Node000001_Node000012"><a xlink:title=" ">
<path fill="none" stroke="#63b8ff" d="M226.51,-167.53C187.44,-158.28 127.92,-144.18 86.35,-134.34"/>
<polygon fill="#63b8ff" stroke="#63b8ff" points="87.41,-130.99 76.87,-132.09 85.79,-137.8 87.41,-130.99"/>
</a>
</g>
</g>
<!-- Node14 -->
<g id="Node000014" class="node">
<title>Node14</title>
<g id="a_Node000014"><a xlink:title=" ">
<polygon fill="#e0e0e0" stroke="#999999" points="393.11,-132 341.86,-132 341.86,-112 393.11,-112 393.11,-132"/>
<text text-anchor="middle" x="367.49" y="-118.5" font-family="Helvetica,sans-Serif" font-size="10.00">memory</text>
</a>
</g>
</g>
<!-- Node1&#45;&gt;Node14 -->
<g id="edge18_Node000001_Node000014" class="edge">
<title>Node1&#45;&gt;Node14</title>
<g id="a_edge18_Node000001_Node000014"><a xlink:title=" ">
<path fill="none" stroke="#63b8ff" d="M284.08,-167.59C299.41,-159.4 321.91,-147.37 339.67,-137.87"/>
<polygon fill="#63b8ff" stroke="#63b8ff" points="341.26,-140.99 348.42,-133.19 337.95,-134.82 341.26,-140.99"/>
</a>
</g>
</g>
<!-- Node3 -->
<g id="Node000003" class="node">
<title>Node3</title>
<g id="a_Node000003"><a xlink:title=" ">
<polygon fill="#e0e0e0" stroke="#999999" points="318.99,-76 275.99,-76 275.99,-56 318.99,-56 318.99,-76"/>
<text text-anchor="middle" x="297.49" y="-62.5" font-family="Helvetica,sans-Serif" font-size="10.00">vector</text>
</a>
</g>
</g>
<!-- Node2&#45;&gt;Node3 -->
<g id="edge2_Node000002_Node000003" class="edge">
<title>Node2&#45;&gt;Node3</title>
<g id="a_edge2_Node000002_Node000003"><a xlink:title=" ">
<path fill="none" stroke="#63b8ff" d="M299.97,-111.59C299.6,-105.01 299.1,-95.96 298.64,-87.73"/>
<polygon fill="#63b8ff" stroke="#63b8ff" points="302.14,-87.6 298.09,-77.81 295.15,-87.99 302.14,-87.6"/>
</a>
</g>
</g>
<!-- Node4 -->
<g id="Node000004" class="node">
<title>Node4</title>
<g id="a_Node000004"><a xlink:title=" ">
<polygon fill="#e0e0e0" stroke="#999999" points="392.36,-76 336.61,-76 336.61,-56 392.36,-56 392.36,-76"/>
<text text-anchor="middle" x="364.49" y="-62.5" font-family="Helvetica,sans-Serif" font-size="10.00">algorithm</text>
</a>
</g>
</g>
<!-- Node2&#45;&gt;Node4 -->
<g id="edge3_Node000002_Node000004" class="edge">
<title>Node2&#45;&gt;Node4</title>
<g id="a_edge3_Node000002_Node000004"><a xlink:title=" ">
<path fill="none" stroke="#63b8ff" d="M311.64,-111.59C320.81,-103.85 334.04,-92.69 344.97,-83.47"/>
<polygon fill="#63b8ff" stroke="#63b8ff" points="346.93,-86.4 352.31,-77.27 342.41,-81.05 346.93,-86.4"/>
</a>
</g>
</g>
<!-- Node5 -->
<g id="Node000005" class="node">
<title>Node5</title>
<g id="a_Node000005"><a xlink:title=" ">
<polygon fill="#e0e0e0" stroke="#999999" points="458.61,-76 410.36,-76 410.36,-56 458.61,-56 458.61,-76"/>
<text text-anchor="middle" x="434.49" y="-62.5" font-family="Helvetica,sans-Serif" font-size="10.00">random</text>
</a>
</g>
</g>
<!-- Node2&#45;&gt;Node5 -->
<g id="edge4_Node000002_Node000005" class="edge">
<title>Node2&#45;&gt;Node5</title>
<g id="a_edge4_Node000002_Node000005"><a xlink:title=" ">
<path fill="none" stroke="#63b8ff" d="M323.83,-111.59C345.03,-103.05 376.55,-90.35 400.54,-80.68"/>
<polygon fill="#63b8ff" stroke="#63b8ff" points="401.59,-84.03 409.56,-77.05 398.98,-77.54 401.59,-84.03"/>
</a>
</g>
</g>
<!-- Node6 -->
<g id="Node000006" class="node">
<title>Node6</title>
<g id="a_Node000006"><a xlink:title=" ">
<polygon fill="#e0e0e0" stroke="#999999" points="535.86,-76 477.11,-76 477.11,-56 535.86,-56 535.86,-76"/>
<text text-anchor="middle" x="506.49" y="-62.5" font-family="Helvetica,sans-Serif" font-size="10.00">stdexcept</text>
</a>
</g>
</g>
<!-- Node2&#45;&gt;Node6 -->
<g id="edge5_Node000002_Node000006" class="edge">
<title>Node2&#45;&gt;Node6</title>
<g id="a_edge5_Node000002_Node000006"><a xlink:title=" ">
<path fill="none" stroke="#63b8ff" d="M324.59,-114.16C327.25,-113.43 329.93,-112.69 332.49,-112 378.16,-99.67 430.75,-86.17 466.06,-77.2"/>
<polygon fill="#63b8ff" stroke="#63b8ff" points="466.58,-80.68 475.42,-74.83 464.86,-73.89 466.58,-80.68"/>
</a>
</g>
</g>
<!-- Node7 -->
<g id="Node000007" class="node">
<title>Node7</title>
<g id="a_Node000007"><a xlink:href="_card_8h.html" target="_top" xlink:title="Playing card class implementation.">
<polygon fill="white" stroke="#666666" points="258.11,-76 212.86,-76 212.86,-56 258.11,-56 258.11,-76"/>
<text text-anchor="middle" x="235.49" y="-62.5" font-family="Helvetica,sans-Serif" font-size="10.00">Card.h</text>
</a>
</g>
</g>
<!-- Node2&#45;&gt;Node7 -->
<g id="edge6_Node000002_Node000007" class="edge">
<title>Node2&#45;&gt;Node7</title>
<g id="a_edge6_Node000002_Node000007"><a xlink:title=" ">
<path fill="none" stroke="#63b8ff" d="M289.17,-111.59C279.85,-103.85 266.41,-92.69 255.31,-83.47"/>
<polygon fill="#63b8ff" stroke="#63b8ff" points="257.77,-80.96 247.85,-77.27 253.3,-86.35 257.77,-80.96"/>
</a>
</g>
</g>
<!-- Node8 -->
<g id="Node000008" class="node">
<title>Node8</title>
<g id="a_Node000008"><a xlink:title=" ">
<polygon fill="#e0e0e0" stroke="#999999" points="164.49,-20 124.49,-20 124.49,0 164.49,0 164.49,-20"/>
<text text-anchor="middle" x="144.49" y="-6.5" font-family="Helvetica,sans-Serif" font-size="10.00">string</text>
</a>
</g>
</g>
<!-- Node7&#45;&gt;Node8 -->
<g id="edge7_Node000007_Node000008" class="edge">
<title>Node7&#45;&gt;Node8</title>
<g id="a_edge7_Node000007_Node000008"><a xlink:title=" ">
<path fill="none" stroke="#63b8ff" d="M219.64,-55.59C206.02,-47.51 186.13,-35.71 170.23,-26.27"/>
<polygon fill="#63b8ff" stroke="#63b8ff" points="172.15,-23.35 161.77,-21.25 168.58,-29.37 172.15,-23.35"/>
</a>
</g>
</g>
<!-- Node9 -->
<g id="Node000009" class="node">
<title>Node9</title>
<g id="a_Node000009"><a xlink:title=" ">
<polygon fill="#e0e0e0" stroke="#999999" points="262.24,-20 208.74,-20 208.74,0 262.24,0 262.24,-20"/>
<text text-anchor="middle" x="235.49" y="-6.5" font-family="Helvetica,sans-Serif" font-size="10.00">iostream</text>
</a>
</g>
</g>
<!-- Node7&#45;&gt;Node9 -->
<g id="edge8_Node000007_Node000009" class="edge">
<title>Node7&#45;&gt;Node9</title>
<g id="a_edge8_Node000007_Node000009"><a xlink:title=" ">
<path fill="none" stroke="#63b8ff" d="M235.49,-55.59C235.49,-49.01 235.49,-39.96 235.49,-31.73"/>
<polygon fill="#63b8ff" stroke="#63b8ff" points="238.99,-31.81 235.49,-21.81 231.99,-31.81 238.99,-31.81"/>
</a>
</g>
</g>
<!-- Node10&#45;&gt;Node3 -->
<g id="edge11_Node000010_Node000003" class="edge">
<title>Node10&#45;&gt;Node3</title>
<g id="a_edge11_Node000010_Node000003"><a xlink:title=" ">
<path fill="none" stroke="#63b8ff" d="M243.81,-111.59C253.13,-103.85 266.57,-92.69 277.67,-83.47"/>
<polygon fill="#63b8ff" stroke="#63b8ff" points="279.68,-86.35 285.13,-77.27 275.2,-80.96 279.68,-86.35"/>
</a>
</g>
</g>
<!-- Node10&#45;&gt;Node7 -->
<g id="edge12_Node000010_Node000007" class="edge">
<title>Node10&#45;&gt;Node7</title>
<g id="a_edge12_Node000010_Node000007"><a xlink:title=" ">
<path fill="none" stroke="#63b8ff" d="M233.01,-111.59C233.38,-105.01 233.88,-95.96 234.34,-87.73"/>
<polygon fill="#63b8ff" stroke="#63b8ff" points="237.83,-87.99 234.89,-77.81 230.84,-87.6 237.83,-87.99"/>
</a>
</g>
</g>
<!-- Node10&#45;&gt;Node8 -->
<g id="edge10_Node000010_Node000008" class="edge">
<title>Node10&#45;&gt;Node8</title>
<g id="a_edge10_Node000010_Node000008"><a xlink:title=" ">
<path fill="none" stroke="#63b8ff" d="M224.99,-111.62C210.37,-93.36 177.88,-52.73 158.94,-29.07"/>
<polygon fill="#63b8ff" stroke="#63b8ff" points="161.9,-27.16 152.92,-21.54 156.43,-31.53 161.9,-27.16"/>
</a>
</g>
</g>
<!-- Node11 -->
<g id="Node000011" class="node">
<title>Node11</title>
<g id="a_Node000011"><a xlink:href="_player_stats_8h.html" target="_top" xlink:title="Player statistics tracking implementation.">
<polygon fill="white" stroke="#666666" points="156.11,-76 80.86,-76 80.86,-56 156.11,-56 156.11,-76"/>
<text text-anchor="middle" x="118.49" y="-62.5" font-family="Helvetica,sans-Serif" font-size="10.00">PlayerStats.h</text>
</a>
</g>
</g>
<!-- Node10&#45;&gt;Node11 -->
<g id="edge13_Node000010_Node000011" class="edge">
<title>Node10&#45;&gt;Node11</title>
<g id="a_edge13_Node000010_Node000011"><a xlink:title=" ">
<path fill="none" stroke="#63b8ff" d="M212.63,-111.59C195,-103.24 168.98,-90.92 148.76,-81.34"/>
<polygon fill="#63b8ff" stroke="#63b8ff" points="150.4,-78.25 139.87,-77.13 147.41,-84.57 150.4,-78.25"/>
</a>
</g>
</g>
<!-- Node11&#45;&gt;Node8 -->
<g id="edge14_Node000011_Node000008" class="edge">
<title>Node11&#45;&gt;Node8</title>
<g id="a_edge14_Node000011_Node000008"><a xlink:title=" ">
<path fill="none" stroke="#63b8ff" d="M123.02,-55.59C126.34,-48.7 130.96,-39.1 135.06,-30.57"/>
<polygon fill="#63b8ff" stroke="#63b8ff" points="138.17,-32.19 139.36,-21.66 131.86,-29.15 138.17,-32.19"/>
</a>
</g>
</g>
<!-- Node12&#45;&gt;Node8 -->
<g id="edge16_Node000012_Node000008" class="edge">
<title>Node12&#45;&gt;Node8</title>
<g id="a_edge16_Node000012_Node000008"><a xlink:title=" ">
<path fill="none" stroke="#63b8ff" d="M27.22,-111.68C12.79,-98.59 -8.86,-74.32 4.49,-56 29.13,-22.19 79.59,-13.23 112.72,-11.15"/>
<polygon fill="#63b8ff" stroke="#63b8ff" points="112.71,-14.66 122.55,-10.73 112.41,-7.66 112.71,-14.66"/>
</a>
</g>
</g>
<!-- Node13 -->
<g id="Node000013" class="node">
<title>Node13</title>
<g id="a_Node000013"><a xlink:title=" ">
<polygon fill="#e0e0e0" stroke="#999999" points="62.99,-76 13.99,-76 13.99,-56 62.99,-56 62.99,-76"/>
<text text-anchor="middle" x="38.49" y="-62.5" font-family="Helvetica,sans-Serif" font-size="10.00">fstream</text>
</a>
</g>
</g>
<!-- Node12&#45;&gt;Node13 -->
<g id="edge17_Node000012_Node000013" class="edge">
<title>Node12&#45;&gt;Node13</title>
<g id="a_edge17_Node000012_Node000013"><a xlink:title=" ">
<path fill="none" stroke="#63b8ff" d="M38.49,-111.59C38.49,-105.01 38.49,-95.96 38.49,-87.73"/>
<polygon fill="#63b8ff" stroke="#63b8ff" points="41.99,-87.81 38.49,-77.81 34.99,-87.81 41.99,-87.81"/>
</a>
</g>
</g>
</g>
</svg>
