<?xml version="1.0" encoding="UTF-8" standalone="no"?>
<!DOCTYPE svg PUBLIC "-//W3C//DTD SVG 1.1//EN"
 "http://www.w3.org/Graphics/SVG/1.1/DTD/svg11.dtd">
<!-- Generated by graphviz version 12.2.0 (20241103.1931)
 -->
<!-- Title: BlackJackGame.cpp Pages: 1 -->
<!--zoomable 252 -->

<svg id="main" version="1.1" xmlns="http://www.w3.org/2000/svg" xmlns:xlink="http://www.w3.org/1999/xlink" xml:space="preserve" onload="init(evt)">

<style type="text/css"><![CDATA[
.node, .edge {opacity: 0.7;}
.node.selected, .edge.selected {opacity: 1;}
.edge:hover path { stroke: red; }
.edge:hover polygon { stroke: red; fill: red; }
]]></style>

<defs>
  <circle id="rim" cx="0" cy="0" r="7"/>
  <circle id="rim2" cx="0" cy="0" r="3.5"/>
  <g id="zoomPlus">
    <use xlink:href="#rim" fill="#404040"><set attributeName="fill" to="#808080" begin="zoomplus.mouseover" end="zoomplus.mouseout"/></use>
    <path d="M-4,0h8M0,-4v8" fill="none" stroke="white" stroke-width="1.5" pointer-events="none"/>
  </g>
  <g id="zoomMin">
    <use xlink:href="#rim" fill="#404040"><set attributeName="fill" to="#808080" begin="zoomminus.mouseover" end="zoomminus.mouseout"/></use>
    <path d="M-4,0h8" fill="none" stroke="white" stroke-width="1.5" pointer-events="none"/>
  </g>
  <g id="arrowUp" transform="translate(30 24)">
    <use xlink:href="#rim"/>
    <path pointer-events="none" fill="none" stroke="white" stroke-width="1.5" d="M0,-3.0v7 M-2.5,-0.5L0,-3.0L2.5,-0.5"/>
  </g>
  <g id="arrowRight" transform="rotate(90) translate(36 -43)">
    <use xlink:href="#rim"/>
    <path pointer-events="none" fill="none" stroke="white" stroke-width="1.5" d="M0,-3.0v7 M-2.5,-0.5L0,-3.0L2.5,-0.5"/>
  </g>
  <g id="arrowDown" transform="rotate(180) translate(-30 -48)">
    <use xlink:href="#rim"/>
    <path pointer-events="none" fill="none" stroke="white" stroke-width="1.5" d="M0,-3.0v7 M-2.5,-0.5L0,-3.0L2.5,-0.5"/>
  </g>
  <g id="arrowLeft" transform="rotate(270) translate(-36 17)">
    <use xlink:href="#rim"/>
    <path pointer-events="none" fill="none" stroke="white" stroke-width="1.5" d="M0,-3.0v7 M-2.5,-0.5L0,-3.0L2.5,-0.5"/>
  </g>
  <g id="resetDef">
    <use xlink:href="#rim2" fill="#404040"><set attributeName="fill" to="#808080" begin="reset.mouseover" end="reset.mouseout"/></use>
  </g>
</defs>
<script type="application/ecmascript">
var viewWidth = 646;
var viewHeight = 252;
var sectionId = 'dynsection-0';
</script>
<script type="application/ecmascript" xlink:href="svg.min.js"/>
<svg id="graph" class="graph">
<g id="viewport">
<title>BlackJackGame.cpp</title>
<!-- Node1 -->
<g id="Node000001" class="node">
<title>Node1</title>
<g id="a_Node000001"><a xlink:title="Implementation of BlackJack game controller class.">
<polygon fill="#999999" stroke="#666666" points="617.68,-244 510.93,-244 510.93,-224 617.68,-224 617.68,-244"/>
<text text-anchor="middle" x="564.31" y="-230.5" font-family="Helvetica,sans-Serif" font-size="10.00">BlackJackGame.cpp</text>
</a>
</g>
</g>
<!-- Node2 -->
<g id="Node000002" class="node">
<title>Node2</title>
<g id="a_Node000002"><a xlink:href="_black_jack_game_8h.html" target="_top" xlink:title="Main game controller class for Blackjack card game.">
<polygon fill="white" stroke="#666666" points="340.93,-188 247.68,-188 247.68,-168 340.93,-168 340.93,-188"/>
<text text-anchor="middle" x="294.31" y="-174.5" font-family="Helvetica,sans-Serif" font-size="10.00">BlackjackGame.h</text>
</a>
</g>
</g>
<!-- Node1&#45;&gt;Node2 -->
<g id="edge1_Node000001_Node000002" class="edge">
<title>Node1&#45;&gt;Node2</title>
<g id="a_edge1_Node000001_Node000002"><a xlink:title=" ">
<path fill="none" stroke="#63b8ff" d="M516.97,-223.53C471.09,-214.36 401.4,-200.42 352.23,-190.59"/>
<polygon fill="#63b8ff" stroke="#63b8ff" points="353.12,-187.19 342.62,-188.66 351.74,-194.06 353.12,-187.19"/>
</a>
</g>
</g>
<!-- Node10 -->
<g id="Node000010" class="node">
<title>Node10</title>
<g id="a_Node000010"><a xlink:title=" ">
<polygon fill="#e0e0e0" stroke="#999999" points="426.06,-20 372.56,-20 372.56,0 426.06,0 426.06,-20"/>
<text text-anchor="middle" x="399.31" y="-6.5" font-family="Helvetica,sans-Serif" font-size="10.00">iostream</text>
</a>
</g>
</g>
<!-- Node1&#45;&gt;Node10 -->
<g id="edge20_Node000001_Node000010" class="edge">
<title>Node1&#45;&gt;Node10</title>
<g id="a_edge20_Node000001_Node000010"><a xlink:title=" ">
<path fill="none" stroke="#63b8ff" d="M566.51,-223.59C572.66,-194.76 586.98,-106.56 545.31,-56 519.27,-24.42 471.58,-14.56 437.8,-11.71"/>
<polygon fill="#63b8ff" stroke="#63b8ff" points="438.2,-8.23 427.99,-11.07 437.74,-15.21 438.2,-8.23"/>
</a>
</g>
</g>
<!-- Node16 -->
<g id="Node000016" class="node">
<title>Node16</title>
<g id="a_Node000016"><a xlink:title=" ">
<polygon fill="#e0e0e0" stroke="#999999" points="637.93,-188 592.68,-188 592.68,-168 637.93,-168 637.93,-188"/>
<text text-anchor="middle" x="615.31" y="-174.5" font-family="Helvetica,sans-Serif" font-size="10.00">cstring</text>
</a>
</g>
</g>
<!-- Node1&#45;&gt;Node16 -->
<g id="edge21_Node000001_Node000016" class="edge">
<title>Node1&#45;&gt;Node16</title>
<g id="a_edge21_Node000001_Node000016"><a xlink:title=" ">
<path fill="none" stroke="#63b8ff" d="M573.19,-223.59C580.21,-216.16 590.21,-205.58 598.7,-196.58"/>
<polygon fill="#63b8ff" stroke="#63b8ff" points="601.16,-199.07 605.49,-189.4 596.07,-194.27 601.16,-199.07"/>
</a>
</g>
</g>
<!-- Node3 -->
<g id="Node000003" class="node">
<title>Node3</title>
<g id="a_Node000003"><a xlink:href="_deck_8h.html" target="_top" xlink:title="Template class for a card deck implementation.">
<polygon fill="white" stroke="#666666" points="385.06,-132 337.56,-132 337.56,-112 385.06,-112 385.06,-132"/>
<text text-anchor="middle" x="361.31" y="-118.5" font-family="Helvetica,sans-Serif" font-size="10.00">Deck.h</text>
</a>
</g>
</g>
<!-- Node2&#45;&gt;Node3 -->
<g id="edge2_Node000002_Node000003" class="edge">
<title>Node2&#45;&gt;Node3</title>
<g id="a_edge2_Node000002_Node000003"><a xlink:title=" ">
<path fill="none" stroke="#63b8ff" d="M305.98,-167.59C315.58,-159.85 329.43,-148.69 340.87,-139.47"/>
<polygon fill="#63b8ff" stroke="#63b8ff" points="343,-142.25 348.59,-133.25 338.61,-136.8 343,-142.25"/>
</a>
</g>
</g>
<!-- Node11 -->
<g id="Node000011" class="node">
<title>Node11</title>
<g id="a_Node000011"><a xlink:href="_player_8h.html" target="_top" xlink:title="Base player class and derived player types for blackjack.">
<polygon fill="white" stroke="#666666" points="250.31,-132 198.31,-132 198.31,-112 250.31,-112 250.31,-132"/>
<text text-anchor="middle" x="224.31" y="-118.5" font-family="Helvetica,sans-Serif" font-size="10.00">Player.h</text>
</a>
</g>
</g>
<!-- Node2&#45;&gt;Node11 -->
<g id="edge10_Node000002_Node000011" class="edge">
<title>Node2&#45;&gt;Node11</title>
<g id="a_edge10_Node000002_Node000011"><a xlink:title=" ">
<path fill="none" stroke="#63b8ff" d="M282.11,-167.59C271.98,-159.77 257.32,-148.46 245.3,-139.19"/>
<polygon fill="#63b8ff" stroke="#63b8ff" points="247.61,-136.56 237.56,-133.22 243.34,-142.1 247.61,-136.56"/>
</a>
</g>
</g>
<!-- Node13 -->
<g id="Node000013" class="node">
<title>Node13</title>
<g id="a_Node000013"><a xlink:href="_save_game_8h.html" target="_top" xlink:title="Game state implementation.">
<polygon fill="white" stroke="#666666" points="74.81,-132 1.81,-132 1.81,-112 74.81,-112 74.81,-132"/>
<text text-anchor="middle" x="38.31" y="-118.5" font-family="Helvetica,sans-Serif" font-size="10.00">SaveGame.h</text>
</a>
</g>
</g>
<!-- Node2&#45;&gt;Node13 -->
<g id="edge16_Node000002_Node000013" class="edge">
<title>Node2&#45;&gt;Node13</title>
<g id="a_edge16_Node000002_Node000013"><a xlink:title=" ">
<path fill="none" stroke="#63b8ff" d="M249.42,-167.53C203.72,-157.89 133.11,-143 86.31,-133.13"/>
<polygon fill="#63b8ff" stroke="#63b8ff" points="87.23,-129.74 76.73,-131.1 85.79,-136.59 87.23,-129.74"/>
</a>
</g>
</g>
<!-- Node15 -->
<g id="Node000015" class="node">
<title>Node15</title>
<g id="a_Node000015"><a xlink:title=" ">
<polygon fill="#e0e0e0" stroke="#999999" points="319.93,-132 268.68,-132 268.68,-112 319.93,-112 319.93,-132"/>
<text text-anchor="middle" x="294.31" y="-118.5" font-family="Helvetica,sans-Serif" font-size="10.00">memory</text>
</a>
</g>
</g>
<!-- Node2&#45;&gt;Node15 -->
<g id="edge19_Node000002_Node000015" class="edge">
<title>Node2&#45;&gt;Node15</title>
<g id="a_edge19_Node000002_Node000015"><a xlink:title=" ">
<path fill="none" stroke="#63b8ff" d="M294.31,-167.59C294.31,-161.01 294.31,-151.96 294.31,-143.73"/>
<polygon fill="#63b8ff" stroke="#63b8ff" points="297.81,-143.81 294.31,-133.81 290.81,-143.81 297.81,-143.81"/>
</a>
</g>
</g>
<!-- Node4 -->
<g id="Node000004" class="node">
<title>Node4</title>
<g id="a_Node000004"><a xlink:title=" ">
<polygon fill="#e0e0e0" stroke="#999999" points="318.81,-76 275.81,-76 275.81,-56 318.81,-56 318.81,-76"/>
<text text-anchor="middle" x="297.31" y="-62.5" font-family="Helvetica,sans-Serif" font-size="10.00">vector</text>
</a>
</g>
</g>
<!-- Node3&#45;&gt;Node4 -->
<g id="edge3_Node000003_Node000004" class="edge">
<title>Node3&#45;&gt;Node4</title>
<g id="a_edge3_Node000003_Node000004"><a xlink:title=" ">
<path fill="none" stroke="#63b8ff" d="M350.16,-111.59C340.98,-103.85 327.75,-92.69 316.82,-83.47"/>
<polygon fill="#63b8ff" stroke="#63b8ff" points="319.38,-81.05 309.48,-77.27 314.87,-86.4 319.38,-81.05"/>
</a>
</g>
</g>
<!-- Node5 -->
<g id="Node000005" class="node">
<title>Node5</title>
<g id="a_Node000005"><a xlink:title=" ">
<polygon fill="#e0e0e0" stroke="#999999" points="536.18,-76 480.43,-76 480.43,-56 536.18,-56 536.18,-76"/>
<text text-anchor="middle" x="508.31" y="-62.5" font-family="Helvetica,sans-Serif" font-size="10.00">algorithm</text>
</a>
</g>
</g>
<!-- Node3&#45;&gt;Node5 -->
<g id="edge4_Node000003_Node000005" class="edge">
<title>Node3&#45;&gt;Node5</title>
<g id="a_edge4_Node000003_Node000005"><a xlink:title=" ">
<path fill="none" stroke="#63b8ff" d="M385.25,-112.2C408.85,-103.54 445.2,-90.18 472.28,-80.23"/>
<polygon fill="#63b8ff" stroke="#63b8ff" points="473.29,-83.59 481.47,-76.86 470.88,-77.02 473.29,-83.59"/>
</a>
</g>
</g>
<!-- Node6 -->
<g id="Node000006" class="node">
<title>Node6</title>
<g id="a_Node000006"><a xlink:title=" ">
<polygon fill="#e0e0e0" stroke="#999999" points="385.43,-76 337.18,-76 337.18,-56 385.43,-56 385.43,-76"/>
<text text-anchor="middle" x="361.31" y="-62.5" font-family="Helvetica,sans-Serif" font-size="10.00">random</text>
</a>
</g>
</g>
<!-- Node3&#45;&gt;Node6 -->
<g id="edge5_Node000003_Node000006" class="edge">
<title>Node3&#45;&gt;Node6</title>
<g id="a_edge5_Node000003_Node000006"><a xlink:title=" ">
<path fill="none" stroke="#63b8ff" d="M361.31,-111.59C361.31,-105.01 361.31,-95.96 361.31,-87.73"/>
<polygon fill="#63b8ff" stroke="#63b8ff" points="364.81,-87.81 361.31,-77.81 357.81,-87.81 364.81,-87.81"/>
</a>
</g>
</g>
<!-- Node7 -->
<g id="Node000007" class="node">
<title>Node7</title>
<g id="a_Node000007"><a xlink:title=" ">
<polygon fill="#e0e0e0" stroke="#999999" points="462.68,-76 403.93,-76 403.93,-56 462.68,-56 462.68,-76"/>
<text text-anchor="middle" x="433.31" y="-62.5" font-family="Helvetica,sans-Serif" font-size="10.00">stdexcept</text>
</a>
</g>
</g>
<!-- Node3&#45;&gt;Node7 -->
<g id="edge6_Node000003_Node000007" class="edge">
<title>Node3&#45;&gt;Node7</title>
<g id="a_edge6_Node000003_Node000007"><a xlink:title=" ">
<path fill="none" stroke="#63b8ff" d="M373.85,-111.59C384.28,-103.77 399.35,-92.46 411.72,-83.19"/>
<polygon fill="#63b8ff" stroke="#63b8ff" points="413.8,-86.01 419.7,-77.21 409.6,-80.41 413.8,-86.01"/>
</a>
</g>
</g>
<!-- Node8 -->
<g id="Node000008" class="node">
<title>Node8</title>
<g id="a_Node000008"><a xlink:href="_card_8h.html" target="_top" xlink:title="Playing card class implementation.">
<polygon fill="white" stroke="#666666" points="257.93,-76 212.68,-76 212.68,-56 257.93,-56 257.93,-76"/>
<text text-anchor="middle" x="235.31" y="-62.5" font-family="Helvetica,sans-Serif" font-size="10.00">Card.h</text>
</a>
</g>
</g>
<!-- Node3&#45;&gt;Node8 -->
<g id="edge7_Node000003_Node000008" class="edge">
<title>Node3&#45;&gt;Node8</title>
<g id="a_edge7_Node000003_Node000008"><a xlink:title=" ">
<path fill="none" stroke="#63b8ff" d="M339.36,-111.59C319.61,-103.13 290.32,-90.58 267.84,-80.94"/>
<polygon fill="#63b8ff" stroke="#63b8ff" points="269.39,-77.8 258.82,-77.08 266.63,-84.23 269.39,-77.8"/>
</a>
</g>
</g>
<!-- Node9 -->
<g id="Node000009" class="node">
<title>Node9</title>
<g id="a_Node000009"><a xlink:title=" ">
<polygon fill="#e0e0e0" stroke="#999999" points="144.31,-20 104.31,-20 104.31,0 144.31,0 144.31,-20"/>
<text text-anchor="middle" x="124.31" y="-6.5" font-family="Helvetica,sans-Serif" font-size="10.00">string</text>
</a>
</g>
</g>
<!-- Node8&#45;&gt;Node9 -->
<g id="edge8_Node000008_Node000009" class="edge">
<title>Node8&#45;&gt;Node9</title>
<g id="a_edge8_Node000008_Node000009"><a xlink:title=" ">
<path fill="none" stroke="#63b8ff" d="M215.97,-55.59C198.89,-47.28 173.7,-35.03 154.05,-25.47"/>
<polygon fill="#63b8ff" stroke="#63b8ff" points="155.68,-22.37 145.15,-21.14 152.61,-28.66 155.68,-22.37"/>
</a>
</g>
</g>
<!-- Node8&#45;&gt;Node10 -->
<g id="edge9_Node000008_Node000010" class="edge">
<title>Node8&#45;&gt;Node10</title>
<g id="a_edge9_Node000008_Node000010"><a xlink:title=" ">
<path fill="none" stroke="#63b8ff" d="M258.11,-57.49C284.8,-48.7 329.4,-34.02 361.34,-23.5"/>
<polygon fill="#63b8ff" stroke="#63b8ff" points="362.22,-26.9 370.62,-20.45 360.03,-20.25 362.22,-26.9"/>
</a>
</g>
</g>
<!-- Node11&#45;&gt;Node4 -->
<g id="edge12_Node000011_Node000004" class="edge">
<title>Node11&#45;&gt;Node4</title>
<g id="a_edge12_Node000011_Node000004"><a xlink:title=" ">
<path fill="none" stroke="#63b8ff" d="M237.02,-111.59C247.7,-103.7 263.19,-92.24 275.79,-82.92"/>
<polygon fill="#63b8ff" stroke="#63b8ff" points="277.56,-85.96 283.52,-77.2 273.4,-80.33 277.56,-85.96"/>
</a>
</g>
</g>
<!-- Node11&#45;&gt;Node8 -->
<g id="edge13_Node000011_Node000008" class="edge">
<title>Node11&#45;&gt;Node8</title>
<g id="a_edge13_Node000011_Node000008"><a xlink:title=" ">
<path fill="none" stroke="#63b8ff" d="M226.22,-111.59C227.58,-104.93 229.45,-95.75 231.14,-87.44"/>
<polygon fill="#63b8ff" stroke="#63b8ff" points="234.54,-88.28 233.11,-77.78 227.68,-86.88 234.54,-88.28"/>
</a>
</g>
</g>
<!-- Node11&#45;&gt;Node9 -->
<g id="edge11_Node000011_Node000009" class="edge">
<title>Node11&#45;&gt;Node9</title>
<g id="a_edge11_Node000011_Node000009"><a xlink:title=" ">
<path fill="none" stroke="#63b8ff" d="M197.83,-118.85C170.7,-115.08 129.82,-104.68 110.31,-76 101.08,-62.44 106.4,-43.92 112.97,-30.12"/>
<polygon fill="#63b8ff" stroke="#63b8ff" points="115.91,-32.05 117.53,-21.58 109.73,-28.75 115.91,-32.05"/>
</a>
</g>
</g>
<!-- Node12 -->
<g id="Node000012" class="node">
<title>Node12</title>
<g id="a_Node000012"><a xlink:href="_player_stats_8h.html" target="_top" xlink:title="Player statistics tracking implementation.">
<polygon fill="white" stroke="#666666" points="194.93,-76 119.68,-76 119.68,-56 194.93,-56 194.93,-76"/>
<text text-anchor="middle" x="157.31" y="-62.5" font-family="Helvetica,sans-Serif" font-size="10.00">PlayerStats.h</text>
</a>
</g>
</g>
<!-- Node11&#45;&gt;Node12 -->
<g id="edge14_Node000011_Node000012" class="edge">
<title>Node11&#45;&gt;Node12</title>
<g id="a_edge14_Node000011_Node000012"><a xlink:title=" ">
<path fill="none" stroke="#63b8ff" d="M212.64,-111.59C203.03,-103.85 189.18,-92.69 177.74,-83.47"/>
<polygon fill="#63b8ff" stroke="#63b8ff" points="180,-80.8 170.02,-77.25 175.61,-86.25 180,-80.8"/>
</a>
</g>
</g>
<!-- Node12&#45;&gt;Node9 -->
<g id="edge15_Node000012_Node000009" class="edge">
<title>Node12&#45;&gt;Node9</title>
<g id="a_edge15_Node000012_Node000009"><a xlink:title=" ">
<path fill="none" stroke="#63b8ff" d="M151.56,-55.59C147.25,-48.55 141.22,-38.67 135.92,-30"/>
<polygon fill="#63b8ff" stroke="#63b8ff" points="138.98,-28.3 130.78,-21.59 133.01,-31.95 138.98,-28.3"/>
</a>
</g>
</g>
<!-- Node13&#45;&gt;Node9 -->
<g id="edge17_Node000013_Node000009" class="edge">
<title>Node13&#45;&gt;Node9</title>
<g id="a_edge17_Node000013_Node000009"><a xlink:title=" ">
<path fill="none" stroke="#63b8ff" d="M27.16,-111.76C12.88,-98.78 -8.61,-74.63 4.31,-56 24.05,-27.52 64.18,-17.04 92.59,-13.19"/>
<polygon fill="#63b8ff" stroke="#63b8ff" points="92.9,-16.68 102.45,-12.09 92.13,-9.72 92.9,-16.68"/>
</a>
</g>
</g>
<!-- Node14 -->
<g id="Node000014" class="node">
<title>Node14</title>
<g id="a_Node000014"><a xlink:title=" ">
<polygon fill="#e0e0e0" stroke="#999999" points="62.81,-76 13.81,-76 13.81,-56 62.81,-56 62.81,-76"/>
<text text-anchor="middle" x="38.31" y="-62.5" font-family="Helvetica,sans-Serif" font-size="10.00">fstream</text>
</a>
</g>
</g>
<!-- Node13&#45;&gt;Node14 -->
<g id="edge18_Node000013_Node000014" class="edge">
<title>Node13&#45;&gt;Node14</title>
<g id="a_edge18_Node000013_Node000014"><a xlink:title=" ">
<path fill="none" stroke="#63b8ff" d="M38.31,-111.59C38.31,-105.01 38.31,-95.96 38.31,-87.73"/>
<polygon fill="#63b8ff" stroke="#63b8ff" points="41.81,-87.81 38.31,-77.81 34.81,-87.81 41.81,-87.81"/>
</a>
</g>
</g>
</g>
</svg>

<g id="navigator" transform="translate(0 0)" fill="#404254">
  <rect fill="#f2f5e9" fill-opacity="0.5" stroke="#606060" stroke-width=".5" x="0" y="0" width="60" height="60"/>
  <use id="zoomplus" xlink:href="#zoomPlus" x="17" y="9" onmousedown="handleZoom(evt,'in')"/>
  <use id="zoomminus" xlink:href="#zoomMin" x="42" y="9" onmousedown="handleZoom(evt,'out')"/>
  <use id="reset" xlink:href="#resetDef" x="30" y="36" onmousedown="handleReset()"/>
   <use id="arrowup" xlink:href="#arrowUp" x="0" y="0" onmousedown="handlePan(0,-1)"/>
  <use id="arrowright" xlink:href="#arrowRight" x="0" y="0" onmousedown="handlePan(1,0)"/>
  <use id="arrowdown" xlink:href="#arrowDown" x="0" y="0" onmousedown="handlePan(0,1)"/>
  <use id="arrowleft" xlink:href="#arrowLeft" x="0" y="0" onmousedown="handlePan(-1,0)"/>
</g>
<svg viewBox="0 0 15 15" width="100%" height="30px" preserveAspectRatio="xMaxYMin meet">
 <g id="arrow_out" transform="scale(0.3 0.3)">
  <a xlink:href="_black_jack_game_8cpp__incl_org.svg" target="_base">
   <rect id="button" ry="5" rx="5" y="6" x="6" height="38" width="38"
        fill="#f2f5e9" fill-opacity="0.5" stroke="#606060" stroke-width="1.0"/>
   <path id="arrow"
     d="M 11.500037,31.436501 C 11.940474,20.09759 22.043105,11.32322 32.158766,21.979434 L 37.068811,17.246167 C 37.068811,17.246167 37.088388,32 37.088388,32 L 22.160133,31.978069 C 22.160133,31.978069 26.997745,27.140456 26.997745,27.140456 C 18.528582,18.264221 13.291696,25.230495 11.500037,31.436501 z"
     style="fill:#404040;"/>
  </a>
 </g>
</svg>

<style type='text/css'>
<![CDATA[
[data-mouse-over-selected='false'] { opacity: 0.7; }
[data-mouse-over-selected='true']  { opacity: 1.0; }
]]>
</style>
<script type="application/ecmascript"><![CDATA[
document.addEventListener('DOMContentLoaded', (event) => {
  highlightEdges();
  highlightAdjacentNodes();
});
]]></script>
</svg>
