<?xml version="1.0" encoding="UTF-8" standalone="no"?>
<!DOCTYPE svg PUBLIC "-//W3C//DTD SVG 1.1//EN"
 "http://www.w3.org/Graphics/SVG/1.1/DTD/svg11.dtd">
<!-- Generated by graphviz version 12.2.0 (20241103.1931)
 -->
<!-- Title: operator&lt;&lt; Pages: 1 -->
<svg width="213pt" height="66pt"
 viewBox="0.00 0.00 213.25 66.00" xmlns="http://www.w3.org/2000/svg" xmlns:xlink="http://www.w3.org/1999/xlink">
<g id="graph0" class="graph" transform="scale(1 1) rotate(0) translate(4 62)">
<title>operator&lt;&lt;</title>
<!-- Node1 -->
<g id="Node000001" class="node">
<title>Node1</title>
<g id="a_Node000001"><a xlink:title="Stream output operator.">
<polygon fill="#999999" stroke="#666666" points="63.25,-39 0,-39 0,-19 63.25,-19 63.25,-39"/>
<text text-anchor="middle" x="31.62" y="-25.5" font-family="Helvetica,sans-Serif" font-size="10.00">operator&lt;&lt;</text>
</a>
</g>
</g>
<!-- Node2 -->
<g id="Node000002" class="node">
<title>Node2</title>
<g id="a_Node000002"><a xlink:href="class_card.html#a5e70c8ac94f7e7a95212e7ed00967da5" target="_top" xlink:title="Get string representation of card&#39;s suit.">
<polygon fill="white" stroke="#666666" points="201.88,-58 102.62,-58 102.62,-38 201.88,-38 201.88,-58"/>
<text text-anchor="middle" x="152.25" y="-44.5" font-family="Helvetica,sans-Serif" font-size="10.00">Card::getSuitString</text>
</a>
</g>
</g>
<!-- Node1&#45;&gt;Node2 -->
<g id="edge1_Node000001_Node000002" class="edge">
<title>Node1&#45;&gt;Node2</title>
<g id="a_edge1_Node000001_Node000002"><a xlink:title=" ">
<path fill="none" stroke="#63b8ff" d="M63.48,-33.94C71.97,-35.3 81.47,-36.82 91.01,-38.35"/>
<polygon fill="#63b8ff" stroke="#63b8ff" points="90.24,-41.77 100.67,-39.9 91.35,-34.86 90.24,-41.77"/>
</a>
</g>
</g>
<!-- Node3 -->
<g id="Node000003" class="node">
<title>Node3</title>
<g id="a_Node000003"><a xlink:href="class_card.html#aec176a6f90ddf2bac50d3ade4382f0a2" target="_top" xlink:title="Get string representation of card&#39;s value.">
<polygon fill="white" stroke="#666666" points="205.25,-20 99.25,-20 99.25,0 205.25,0 205.25,-20"/>
<text text-anchor="middle" x="152.25" y="-6.5" font-family="Helvetica,sans-Serif" font-size="10.00">Card::getValueString</text>
</a>
</g>
</g>
<!-- Node1&#45;&gt;Node3 -->
<g id="edge2_Node000001_Node000003" class="edge">
<title>Node1&#45;&gt;Node3</title>
<g id="a_edge2_Node000001_Node000003"><a xlink:title=" ">
<path fill="none" stroke="#63b8ff" d="M63.48,-24.06C71.02,-22.85 79.37,-21.51 87.83,-20.16"/>
<polygon fill="#63b8ff" stroke="#63b8ff" points="88.14,-23.65 97.46,-18.62 87.03,-16.74 88.14,-23.65"/>
</a>
</g>
</g>
</g>
</svg>
