<?xml version="1.0" encoding="UTF-8" standalone="no"?>
<!DOCTYPE svg PUBLIC "-//W3C//DTD SVG 1.1//EN"
 "http://www.w3.org/Graphics/SVG/1.1/DTD/svg11.dtd">
<!-- Generated by graphviz version 12.2.0 (20241103.1931)
 -->
<!-- Title: Card.cpp Pages: 1 -->
<svg width="120pt" height="140pt"
 viewBox="0.00 0.00 119.75 140.00" xmlns="http://www.w3.org/2000/svg" xmlns:xlink="http://www.w3.org/1999/xlink">
<g id="graph0" class="graph" transform="scale(1 1) rotate(0) translate(4 136)">
<title>Card.cpp</title>
<!-- Node1 -->
<g id="Node000001" class="node">
<title>Node1</title>
<g id="a_Node000001"><a xlink:title="Implementation of Card class.">
<polygon fill="#999999" stroke="#666666" points="79.88,-132 24.12,-132 24.12,-112 79.88,-112 79.88,-132"/>
<text text-anchor="middle" x="52" y="-118.5" font-family="Helvetica,sans-Serif" font-size="10.00">Card.cpp</text>
</a>
</g>
</g>
<!-- Node2 -->
<g id="Node000002" class="node">
<title>Node2</title>
<g id="a_Node000002"><a xlink:href="_card_8h.html" target="_top" xlink:title="Playing card class implementation.">
<polygon fill="white" stroke="#666666" points="74.62,-76 29.38,-76 29.38,-56 74.62,-56 74.62,-76"/>
<text text-anchor="middle" x="52" y="-62.5" font-family="Helvetica,sans-Serif" font-size="10.00">Card.h</text>
</a>
</g>
</g>
<!-- Node1&#45;&gt;Node2 -->
<g id="edge1_Node000001_Node000002" class="edge">
<title>Node1&#45;&gt;Node2</title>
<g id="a_edge1_Node000001_Node000002"><a xlink:title=" ">
<path fill="none" stroke="#63b8ff" d="M52,-111.59C52,-105.01 52,-95.96 52,-87.73"/>
<polygon fill="#63b8ff" stroke="#63b8ff" points="55.5,-87.81 52,-77.81 48.5,-87.81 55.5,-87.81"/>
</a>
</g>
</g>
<!-- Node3 -->
<g id="Node000003" class="node">
<title>Node3</title>
<g id="a_Node000003"><a xlink:title=" ">
<polygon fill="#e0e0e0" stroke="#999999" points="40,-20 0,-20 0,0 40,0 40,-20"/>
<text text-anchor="middle" x="20" y="-6.5" font-family="Helvetica,sans-Serif" font-size="10.00">string</text>
</a>
</g>
</g>
<!-- Node2&#45;&gt;Node3 -->
<g id="edge2_Node000002_Node000003" class="edge">
<title>Node2&#45;&gt;Node3</title>
<g id="a_edge2_Node000002_Node000003"><a xlink:title=" ">
<path fill="none" stroke="#63b8ff" d="M46.43,-55.59C42.25,-48.55 36.4,-38.67 31.26,-30"/>
<polygon fill="#63b8ff" stroke="#63b8ff" points="34.39,-28.42 26.28,-21.6 28.37,-31.99 34.39,-28.42"/>
</a>
</g>
</g>
<!-- Node4 -->
<g id="Node000004" class="node">
<title>Node4</title>
<g id="a_Node000004"><a xlink:title=" ">
<polygon fill="#e0e0e0" stroke="#999999" points="111.75,-20 58.25,-20 58.25,0 111.75,0 111.75,-20"/>
<text text-anchor="middle" x="85" y="-6.5" font-family="Helvetica,sans-Serif" font-size="10.00">iostream</text>
</a>
</g>
</g>
<!-- Node2&#45;&gt;Node4 -->
<g id="edge3_Node000002_Node000004" class="edge">
<title>Node2&#45;&gt;Node4</title>
<g id="a_edge3_Node000002_Node000004"><a xlink:title=" ">
<path fill="none" stroke="#63b8ff" d="M57.75,-55.59C62.05,-48.55 68.09,-38.67 73.39,-30"/>
<polygon fill="#63b8ff" stroke="#63b8ff" points="76.3,-31.95 78.53,-21.59 70.33,-28.3 76.3,-31.95"/>
</a>
</g>
</g>
</g>
</svg>
