<?xml version="1.0" encoding="UTF-8" standalone="no"?>
<!DOCTYPE svg PUBLIC "-//W3C//DTD SVG 1.1//EN"
 "http://www.w3.org/Graphics/SVG/1.1/DTD/svg11.dtd">
<!-- Generated by graphviz version 12.2.0 (20241103.1931)
 -->
<!-- Title: Card.h Pages: 1 -->
<svg width="239pt" height="196pt"
 viewBox="0.00 0.00 238.62 196.00" xmlns="http://www.w3.org/2000/svg" xmlns:xlink="http://www.w3.org/1999/xlink">

<svg id="main" version="1.1" xmlns="http://www.w3.org/2000/svg" xmlns:xlink="http://www.w3.org/1999/xlink" xml:space="preserve">

<style type="text/css"><![CDATA[
.node, .edge {opacity: 0.7;}
.node.selected, .edge.selected {opacity: 1;}
.edge:hover path { stroke: red; }
.edge:hover polygon { stroke: red; fill: red; }
]]></style>
<script type="application/ecmascript" xlink:href="svg.min.js"/>
<svg id="graph" class="graph">
<g id="graph0" class="graph" transform="scale(1 1) rotate(0) translate(4 192)">
<title>Card.h</title>
<!-- Node1 -->
<g id="Node000001" class="node">
<title>Node1</title>
<g id="a_Node000001"><a xlink:title="Playing card class implementation.">
<polygon fill="#999999" stroke="#666666" points="125,-188 79.75,-188 79.75,-168 125,-168 125,-188"/>
<text text-anchor="middle" x="102.38" y="-174.5" font-family="Helvetica,sans-Serif" font-size="10.00">Card.h</text>
</a>
</g>
</g>
<!-- Node2 -->
<g id="Node000002" class="node">
<title>Node2</title>
<g id="a_Node000002"><a xlink:href="_card_8cpp.html" target="_top" xlink:title="Implementation of Card class.">
<polygon fill="white" stroke="#666666" points="60.25,-132 4.5,-132 4.5,-112 60.25,-112 60.25,-132"/>
<text text-anchor="middle" x="32.38" y="-118.5" font-family="Helvetica,sans-Serif" font-size="10.00">Card.cpp</text>
</a>
</g>
</g>
<!-- Node1&#45;&gt;Node2 -->
<g id="edge1_Node000001_Node000002" class="edge">
<title>Node1&#45;&gt;Node2</title>
<g id="a_edge1_Node000001_Node000002"><a xlink:title=" ">
<path fill="none" stroke="#63b8ff" d="M81.22,-160.68C69.18,-151.39 54.52,-140.09 44.43,-132.3"/>
<polygon fill="#63b8ff" stroke="#63b8ff" points="78.93,-163.33 88.98,-166.67 83.2,-157.79 78.93,-163.33"/>
</a>
</g>
</g>
<!-- Node3 -->
<g id="Node000003" class="node">
<title>Node3</title>
<g id="a_Node000003"><a xlink:href="_deck_8h.html" target="_top" xlink:title="Template class for a card deck implementation.">
<polygon fill="white" stroke="#666666" points="126.12,-132 78.62,-132 78.62,-112 126.12,-112 126.12,-132"/>
<text text-anchor="middle" x="102.38" y="-118.5" font-family="Helvetica,sans-Serif" font-size="10.00">Deck.h</text>
</a>
</g>
</g>
<!-- Node1&#45;&gt;Node3 -->
<g id="edge2_Node000001_Node000003" class="edge">
<title>Node1&#45;&gt;Node3</title>
<g id="a_edge2_Node000001_Node000003"><a xlink:title=" ">
<path fill="none" stroke="#63b8ff" d="M102.38,-156.13C102.38,-147.9 102.38,-138.85 102.38,-132.3"/>
<polygon fill="#63b8ff" stroke="#63b8ff" points="98.88,-156.08 102.38,-166.08 105.88,-156.08 98.88,-156.08"/>
</a>
</g>
</g>
<!-- Node7 -->
<g id="Node000007" class="node">
<title>Node7</title>
<g id="a_Node000007"><a xlink:href="_player_8h.html" target="_top" xlink:title="Base player class and derived player types for blackjack.">
<polygon fill="white" stroke="#666666" points="196.38,-132 144.38,-132 144.38,-112 196.38,-112 196.38,-132"/>
<text text-anchor="middle" x="170.38" y="-118.5" font-family="Helvetica,sans-Serif" font-size="10.00">Player.h</text>
</a>
</g>
</g>
<!-- Node1&#45;&gt;Node7 -->
<g id="edge6_Node000001_Node000007" class="edge">
<title>Node1&#45;&gt;Node7</title>
<g id="a_edge6_Node000001_Node000007"><a xlink:title=" ">
<path fill="none" stroke="#63b8ff" d="M122.93,-160.68C134.63,-151.39 148.86,-140.09 158.67,-132.3"/>
<polygon fill="#63b8ff" stroke="#63b8ff" points="121.06,-157.69 115.4,-166.65 125.41,-163.17 121.06,-157.69"/>
</a>
</g>
</g>
<!-- Node4 -->
<g id="Node000004" class="node">
<title>Node4</title>
<g id="a_Node000004"><a xlink:href="_black_jack_game_8h.html" target="_top" xlink:title="Main game controller class for Blackjack card game.">
<polygon fill="white" stroke="#666666" points="150.5,-76 54.25,-76 54.25,-56 150.5,-56 150.5,-76"/>
<text text-anchor="middle" x="102.38" y="-62.5" font-family="Helvetica,sans-Serif" font-size="10.00">BlackJackGame.h</text>
</a>
</g>
</g>
<!-- Node3&#45;&gt;Node4 -->
<g id="edge3_Node000003_Node000004" class="edge">
<title>Node3&#45;&gt;Node4</title>
<g id="a_edge3_Node000003_Node000004"><a xlink:title=" ">
<path fill="none" stroke="#63b8ff" d="M102.38,-100.13C102.38,-91.9 102.38,-82.85 102.38,-76.3"/>
<polygon fill="#63b8ff" stroke="#63b8ff" points="98.88,-100.08 102.38,-110.08 105.88,-100.08 98.88,-100.08"/>
</a>
</g>
</g>
<!-- Node5 -->
<g id="Node000005" class="node">
<title>Node5</title>
<g id="a_Node000005"><a xlink:href="_black_jack_game_8cpp.html" target="_top" xlink:title="Implementation of BlackJack game controller class.">
<polygon fill="white" stroke="#666666" points="106.75,-20 0,-20 0,0 106.75,0 106.75,-20"/>
<text text-anchor="middle" x="53.38" y="-6.5" font-family="Helvetica,sans-Serif" font-size="10.00">BlackJackGame.cpp</text>
</a>
</g>
</g>
<!-- Node4&#45;&gt;Node5 -->
<g id="edge4_Node000004_Node000005" class="edge">
<title>Node4&#45;&gt;Node5</title>
<g id="a_edge4_Node000004_Node000005"><a xlink:title=" ">
<path fill="none" stroke="#63b8ff" d="M86.3,-47.29C78.13,-38.28 68.53,-27.7 61.81,-20.3"/>
<polygon fill="#63b8ff" stroke="#63b8ff" points="83.51,-49.42 92.82,-54.47 88.69,-44.72 83.51,-49.42"/>
</a>
</g>
</g>
<!-- Node6 -->
<g id="Node000006" class="node">
<title>Node6</title>
<g id="a_Node000006"><a xlink:href="main_8cpp.html" target="_top" xlink:title="Main entry point for Blackjack game.">
<polygon fill="white" stroke="#666666" points="180.25,-20 124.5,-20 124.5,0 180.25,0 180.25,-20"/>
<text text-anchor="middle" x="152.38" y="-6.5" font-family="Helvetica,sans-Serif" font-size="10.00">main.cpp</text>
</a>
</g>
</g>
<!-- Node4&#45;&gt;Node6 -->
<g id="edge5_Node000004_Node000006" class="edge">
<title>Node4&#45;&gt;Node6</title>
<g id="a_edge5_Node000004_Node000006"><a xlink:title=" ">
<path fill="none" stroke="#63b8ff" d="M118.78,-47.29C127.12,-38.28 136.91,-27.7 143.77,-20.3"/>
<polygon fill="#63b8ff" stroke="#63b8ff" points="116.34,-44.77 112.11,-54.48 121.47,-49.52 116.34,-44.77"/>
</a>
</g>
</g>
<!-- Node7&#45;&gt;Node4 -->
<g id="edge7_Node000007_Node000004" class="edge">
<title>Node7&#45;&gt;Node4</title>
<g id="a_edge7_Node000007_Node000004"><a xlink:title=" ">
<path fill="none" stroke="#63b8ff" d="M149.82,-104.68C138.12,-95.39 123.89,-84.09 114.08,-76.3"/>
<polygon fill="#63b8ff" stroke="#63b8ff" points="147.34,-107.17 157.35,-110.65 151.69,-101.69 147.34,-107.17"/>
</a>
</g>
</g>
<!-- Node8 -->
<g id="Node000008" class="node">
<title>Node8</title>
<g id="a_Node000008"><a xlink:href="_player_8cpp.html" target="_top" xlink:title="Implementation of Player base class and derived Human/Dealer classes.">
<polygon fill="white" stroke="#666666" points="230.62,-76 168.12,-76 168.12,-56 230.62,-56 230.62,-76"/>
<text text-anchor="middle" x="199.38" y="-62.5" font-family="Helvetica,sans-Serif" font-size="10.00">Player.cpp</text>
</a>
</g>
</g>
<!-- Node7&#45;&gt;Node8 -->
<g id="edge8_Node000007_Node000008" class="edge">
<title>Node7&#45;&gt;Node8</title>
<g id="a_edge8_Node000007_Node000008"><a xlink:title=" ">
<path fill="none" stroke="#63b8ff" d="M180.8,-101.58C185.43,-92.97 190.65,-83.24 194.38,-76.3"/>
<polygon fill="#63b8ff" stroke="#63b8ff" points="177.79,-99.79 176.14,-110.26 183.96,-103.11 177.79,-99.79"/>
</a>
</g>
</g>
</g>
</svg>
</svg>

<style type='text/css'>
<![CDATA[
[data-mouse-over-selected='false'] { opacity: 0.7; }
[data-mouse-over-selected='true']  { opacity: 1.0; }
]]>
</style>
<script type="application/ecmascript"><![CDATA[
document.addEventListener('DOMContentLoaded', (event) => {
  highlightEdges();
  highlightAdjacentNodes();
});
]]></script>
</svg>
