<?xml version="1.0" encoding="UTF-8" standalone="no"?>
<!DOCTYPE svg PUBLIC "-//W3C//DTD SVG 1.1//EN"
 "http://www.w3.org/Graphics/SVG/1.1/DTD/svg11.dtd">
<!-- Generated by graphviz version 12.2.0 (20241103.1931)
 -->
<!-- Title: Deck.h Pages: 1 -->
<svg width="367pt" height="140pt"
 viewBox="0.00 0.00 367.25 140.00" xmlns="http://www.w3.org/2000/svg" xmlns:xlink="http://www.w3.org/1999/xlink">

<svg id="main" version="1.1" xmlns="http://www.w3.org/2000/svg" xmlns:xlink="http://www.w3.org/1999/xlink" xml:space="preserve">

<style type="text/css"><![CDATA[
.node, .edge {opacity: 0.7;}
.node.selected, .edge.selected {opacity: 1;}
.edge:hover path { stroke: red; }
.edge:hover polygon { stroke: red; fill: red; }
]]></style>
<script type="application/ecmascript" xlink:href="svg.min.js"/>
<svg id="graph" class="graph">
<g id="graph0" class="graph" transform="scale(1 1) rotate(0) translate(4 136)">
<title>Deck.h</title>
<!-- Node1 -->
<g id="Node000001" class="node">
<title>Node1</title>
<g id="a_Node000001"><a xlink:title="Template class for a card deck implementation.">
<polygon fill="#999999" stroke="#666666" points="182.25,-132 134.75,-132 134.75,-112 182.25,-112 182.25,-132"/>
<text text-anchor="middle" x="158.5" y="-118.5" font-family="Helvetica,sans-Serif" font-size="10.00">Deck.h</text>
</a>
</g>
</g>
<!-- Node2 -->
<g id="Node000002" class="node">
<title>Node2</title>
<g id="a_Node000002"><a xlink:title=" ">
<polygon fill="#e0e0e0" stroke="#999999" points="43,-76 0,-76 0,-56 43,-56 43,-76"/>
<text text-anchor="middle" x="21.5" y="-62.5" font-family="Helvetica,sans-Serif" font-size="10.00">vector</text>
</a>
</g>
</g>
<!-- Node1&#45;&gt;Node2 -->
<g id="edge1_Node000001_Node000002" class="edge">
<title>Node1&#45;&gt;Node2</title>
<g id="a_edge1_Node000001_Node000002"><a xlink:title=" ">
<path fill="none" stroke="#63b8ff" d="M134.64,-111.59C112.3,-102.79 78.74,-89.56 53.97,-79.8"/>
<polygon fill="#63b8ff" stroke="#63b8ff" points="55.28,-76.55 44.69,-76.14 52.71,-83.06 55.28,-76.55"/>
</a>
</g>
</g>
<!-- Node3 -->
<g id="Node000003" class="node">
<title>Node3</title>
<g id="a_Node000003"><a xlink:title=" ">
<polygon fill="#e0e0e0" stroke="#999999" points="116.38,-76 60.62,-76 60.62,-56 116.38,-56 116.38,-76"/>
<text text-anchor="middle" x="88.5" y="-62.5" font-family="Helvetica,sans-Serif" font-size="10.00">algorithm</text>
</a>
</g>
</g>
<!-- Node1&#45;&gt;Node3 -->
<g id="edge2_Node000001_Node000003" class="edge">
<title>Node1&#45;&gt;Node3</title>
<g id="a_edge2_Node000001_Node000003"><a xlink:title=" ">
<path fill="none" stroke="#63b8ff" d="M146.31,-111.59C136.17,-103.77 121.51,-92.46 109.49,-83.19"/>
<polygon fill="#63b8ff" stroke="#63b8ff" points="111.81,-80.56 101.75,-77.22 107.53,-86.1 111.81,-80.56"/>
</a>
</g>
</g>
<!-- Node4 -->
<g id="Node000004" class="node">
<title>Node4</title>
<g id="a_Node000004"><a xlink:title=" ">
<polygon fill="#e0e0e0" stroke="#999999" points="182.62,-76 134.38,-76 134.38,-56 182.62,-56 182.62,-76"/>
<text text-anchor="middle" x="158.5" y="-62.5" font-family="Helvetica,sans-Serif" font-size="10.00">random</text>
</a>
</g>
</g>
<!-- Node1&#45;&gt;Node4 -->
<g id="edge3_Node000001_Node000004" class="edge">
<title>Node1&#45;&gt;Node4</title>
<g id="a_edge3_Node000001_Node000004"><a xlink:title=" ">
<path fill="none" stroke="#63b8ff" d="M158.5,-111.59C158.5,-105.01 158.5,-95.96 158.5,-87.73"/>
<polygon fill="#63b8ff" stroke="#63b8ff" points="162,-87.81 158.5,-77.81 155,-87.81 162,-87.81"/>
</a>
</g>
</g>
<!-- Node5 -->
<g id="Node000005" class="node">
<title>Node5</title>
<g id="a_Node000005"><a xlink:title=" ">
<polygon fill="#e0e0e0" stroke="#999999" points="259.88,-76 201.12,-76 201.12,-56 259.88,-56 259.88,-76"/>
<text text-anchor="middle" x="230.5" y="-62.5" font-family="Helvetica,sans-Serif" font-size="10.00">stdexcept</text>
</a>
</g>
</g>
<!-- Node1&#45;&gt;Node5 -->
<g id="edge4_Node000001_Node000005" class="edge">
<title>Node1&#45;&gt;Node5</title>
<g id="a_edge4_Node000001_Node000005"><a xlink:title=" ">
<path fill="none" stroke="#63b8ff" d="M171.04,-111.59C181.47,-103.77 196.55,-92.46 208.91,-83.19"/>
<polygon fill="#63b8ff" stroke="#63b8ff" points="210.99,-86.01 216.89,-77.21 206.79,-80.41 210.99,-86.01"/>
</a>
</g>
</g>
<!-- Node6 -->
<g id="Node000006" class="node">
<title>Node6</title>
<g id="a_Node000006"><a xlink:href="_card_8h.html" target="_top" xlink:title="Playing card class implementation.">
<polygon fill="white" stroke="#666666" points="323.12,-76 277.88,-76 277.88,-56 323.12,-56 323.12,-76"/>
<text text-anchor="middle" x="300.5" y="-62.5" font-family="Helvetica,sans-Serif" font-size="10.00">Card.h</text>
</a>
</g>
</g>
<!-- Node1&#45;&gt;Node6 -->
<g id="edge5_Node000001_Node000006" class="edge">
<title>Node1&#45;&gt;Node6</title>
<g id="a_edge5_Node000001_Node000006"><a xlink:title=" ">
<path fill="none" stroke="#63b8ff" d="M182.59,-111.84C205.85,-102.99 241.28,-89.52 267.23,-79.65"/>
<polygon fill="#63b8ff" stroke="#63b8ff" points="268.19,-83.03 276.29,-76.21 265.7,-76.49 268.19,-83.03"/>
</a>
</g>
</g>
<!-- Node7 -->
<g id="Node000007" class="node">
<title>Node7</title>
<g id="a_Node000007"><a xlink:title=" ">
<polygon fill="#e0e0e0" stroke="#999999" points="287.5,-20 247.5,-20 247.5,0 287.5,0 287.5,-20"/>
<text text-anchor="middle" x="267.5" y="-6.5" font-family="Helvetica,sans-Serif" font-size="10.00">string</text>
</a>
</g>
</g>
<!-- Node6&#45;&gt;Node7 -->
<g id="edge6_Node000006_Node000007" class="edge">
<title>Node6&#45;&gt;Node7</title>
<g id="a_edge6_Node000006_Node000007"><a xlink:title=" ">
<path fill="none" stroke="#63b8ff" d="M294.75,-55.59C290.45,-48.55 284.41,-38.67 279.11,-30"/>
<polygon fill="#63b8ff" stroke="#63b8ff" points="282.17,-28.3 273.97,-21.59 276.2,-31.95 282.17,-28.3"/>
</a>
</g>
</g>
<!-- Node8 -->
<g id="Node000008" class="node">
<title>Node8</title>
<g id="a_Node000008"><a xlink:title=" ">
<polygon fill="#e0e0e0" stroke="#999999" points="359.25,-20 305.75,-20 305.75,0 359.25,0 359.25,-20"/>
<text text-anchor="middle" x="332.5" y="-6.5" font-family="Helvetica,sans-Serif" font-size="10.00">iostream</text>
</a>
</g>
</g>
<!-- Node6&#45;&gt;Node8 -->
<g id="edge7_Node000006_Node000008" class="edge">
<title>Node6&#45;&gt;Node8</title>
<g id="a_edge7_Node000006_Node000008"><a xlink:title=" ">
<path fill="none" stroke="#63b8ff" d="M306.07,-55.59C310.25,-48.55 316.1,-38.67 321.24,-30"/>
<polygon fill="#63b8ff" stroke="#63b8ff" points="324.13,-31.99 326.22,-21.6 318.11,-28.42 324.13,-31.99"/>
</a>
</g>
</g>
</g>
</svg>
</svg>

<style type='text/css'>
<![CDATA[
[data-mouse-over-selected='false'] { opacity: 0.7; }
[data-mouse-over-selected='true']  { opacity: 1.0; }
]]>
</style>
<script type="application/ecmascript"><![CDATA[
document.addEventListener('DOMContentLoaded', (event) => {
  highlightEdges();
  highlightAdjacentNodes();
});
]]></script>
</svg>
