<?xml version="1.0" encoding="UTF-8" standalone="no"?>
<!DOCTYPE svg PUBLIC "-//W3C//DTD SVG 1.1//EN"
 "http://www.w3.org/Graphics/SVG/1.1/DTD/svg11.dtd">
<!-- Generated by graphviz version 12.2.0 (20241103.1931)
 -->
<!-- Title: Player.cpp Pages: 1 -->
<svg width="251pt" height="196pt"
 viewBox="0.00 0.00 250.54 196.00" xmlns="http://www.w3.org/2000/svg" xmlns:xlink="http://www.w3.org/1999/xlink">
<g id="graph0" class="graph" transform="scale(1 1) rotate(0) translate(4 192)">
<title>Player.cpp</title>
<!-- Node1 -->
<g id="Node000001" class="node">
<title>Node1</title>
<g id="a_Node000001"><a xlink:title="Implementation of Player base class and derived Human/Dealer classes.">
<polygon fill="#999999" stroke="#666666" points="208.04,-188 145.54,-188 145.54,-168 208.04,-168 208.04,-188"/>
<text text-anchor="middle" x="176.79" y="-174.5" font-family="Helvetica,sans-Serif" font-size="10.00">Player.cpp</text>
</a>
</g>
</g>
<!-- Node2 -->
<g id="Node000002" class="node">
<title>Node2</title>
<g id="a_Node000002"><a xlink:href="_player_8h.html" target="_top" xlink:title="Base player class and derived player types for blackjack.">
<polygon fill="white" stroke="#666666" points="138.79,-132 86.79,-132 86.79,-112 138.79,-112 138.79,-132"/>
<text text-anchor="middle" x="112.79" y="-118.5" font-family="Helvetica,sans-Serif" font-size="10.00">Player.h</text>
</a>
</g>
</g>
<!-- Node1&#45;&gt;Node2 -->
<g id="edge1_Node000001_Node000002" class="edge">
<title>Node1&#45;&gt;Node2</title>
<g id="a_edge1_Node000001_Node000002"><a xlink:title=" ">
<path fill="none" stroke="#63b8ff" d="M165.64,-167.59C156.47,-159.85 143.24,-148.69 132.31,-139.47"/>
<polygon fill="#63b8ff" stroke="#63b8ff" points="134.87,-137.05 124.97,-133.27 130.36,-142.4 134.87,-137.05"/>
</a>
</g>
</g>
<!-- Node6 -->
<g id="Node000006" class="node">
<title>Node6</title>
<g id="a_Node000006"><a xlink:title=" ">
<polygon fill="#e0e0e0" stroke="#999999" points="242.54,-20 189.04,-20 189.04,0 242.54,0 242.54,-20"/>
<text text-anchor="middle" x="215.79" y="-6.5" font-family="Helvetica,sans-Serif" font-size="10.00">iostream</text>
</a>
</g>
</g>
<!-- Node1&#45;&gt;Node6 -->
<g id="edge9_Node000001_Node000006" class="edge">
<title>Node1&#45;&gt;Node6</title>
<g id="a_edge9_Node000001_Node000006"><a xlink:title=" ">
<path fill="none" stroke="#63b8ff" d="M182.67,-167.73C193.22,-150.49 214.99,-111.96 222.79,-76 226,-61.21 223.97,-44.18 221.28,-31.27"/>
<polygon fill="#63b8ff" stroke="#63b8ff" points="224.75,-30.73 219.01,-21.83 217.95,-32.37 224.75,-30.73"/>
</a>
</g>
</g>
<!-- Node3 -->
<g id="Node000003" class="node">
<title>Node3</title>
<g id="a_Node000003"><a xlink:title=" ">
<polygon fill="#e0e0e0" stroke="#999999" points="132.79,-20 92.79,-20 92.79,0 132.79,0 132.79,-20"/>
<text text-anchor="middle" x="112.79" y="-6.5" font-family="Helvetica,sans-Serif" font-size="10.00">string</text>
</a>
</g>
</g>
<!-- Node2&#45;&gt;Node3 -->
<g id="edge2_Node000002_Node000003" class="edge">
<title>Node2&#45;&gt;Node3</title>
<g id="a_edge2_Node000002_Node000003"><a xlink:title=" ">
<path fill="none" stroke="#63b8ff" d="M86.71,-118.25C60.97,-113.99 22.93,-103.21 4.79,-76 -16.54,-44 42.31,-25.3 81.31,-16.73"/>
<polygon fill="#63b8ff" stroke="#63b8ff" points="81.86,-20.19 90.94,-14.74 80.44,-13.33 81.86,-20.19"/>
</a>
</g>
</g>
<!-- Node4 -->
<g id="Node000004" class="node">
<title>Node4</title>
<g id="a_Node000004"><a xlink:title=" ">
<polygon fill="#e0e0e0" stroke="#999999" points="57.29,-76 14.29,-76 14.29,-56 57.29,-56 57.29,-76"/>
<text text-anchor="middle" x="35.79" y="-62.5" font-family="Helvetica,sans-Serif" font-size="10.00">vector</text>
</a>
</g>
</g>
<!-- Node2&#45;&gt;Node4 -->
<g id="edge3_Node000002_Node000004" class="edge">
<title>Node2&#45;&gt;Node4</title>
<g id="a_edge3_Node000002_Node000004"><a xlink:title=" ">
<path fill="none" stroke="#63b8ff" d="M99.38,-111.59C88.19,-103.74 71.98,-92.38 58.73,-83.09"/>
<polygon fill="#63b8ff" stroke="#63b8ff" points="60.75,-80.22 50.55,-77.35 56.73,-85.96 60.75,-80.22"/>
</a>
</g>
</g>
<!-- Node5 -->
<g id="Node000005" class="node">
<title>Node5</title>
<g id="a_Node000005"><a xlink:href="_card_8h.html" target="_top" xlink:title="Playing card class implementation.">
<polygon fill="white" stroke="#666666" points="213.42,-76 168.17,-76 168.17,-56 213.42,-56 213.42,-76"/>
<text text-anchor="middle" x="190.79" y="-62.5" font-family="Helvetica,sans-Serif" font-size="10.00">Card.h</text>
</a>
</g>
</g>
<!-- Node2&#45;&gt;Node5 -->
<g id="edge4_Node000002_Node000005" class="edge">
<title>Node2&#45;&gt;Node5</title>
<g id="a_edge4_Node000002_Node000005"><a xlink:title=" ">
<path fill="none" stroke="#63b8ff" d="M126.38,-111.59C137.83,-103.67 154.46,-92.16 167.95,-82.82"/>
<polygon fill="#63b8ff" stroke="#63b8ff" points="169.63,-85.91 175.86,-77.34 165.64,-80.16 169.63,-85.91"/>
</a>
</g>
</g>
<!-- Node7 -->
<g id="Node000007" class="node">
<title>Node7</title>
<g id="a_Node000007"><a xlink:href="_player_stats_8h.html" target="_top" xlink:title="Player statistics tracking implementation.">
<polygon fill="white" stroke="#666666" points="150.42,-76 75.17,-76 75.17,-56 150.42,-56 150.42,-76"/>
<text text-anchor="middle" x="112.79" y="-62.5" font-family="Helvetica,sans-Serif" font-size="10.00">PlayerStats.h</text>
</a>
</g>
</g>
<!-- Node2&#45;&gt;Node7 -->
<g id="edge7_Node000002_Node000007" class="edge">
<title>Node2&#45;&gt;Node7</title>
<g id="a_edge7_Node000002_Node000007"><a xlink:title=" ">
<path fill="none" stroke="#63b8ff" d="M112.79,-111.59C112.79,-105.01 112.79,-95.96 112.79,-87.73"/>
<polygon fill="#63b8ff" stroke="#63b8ff" points="116.29,-87.81 112.79,-77.81 109.29,-87.81 116.29,-87.81"/>
</a>
</g>
</g>
<!-- Node5&#45;&gt;Node3 -->
<g id="edge5_Node000005_Node000003" class="edge">
<title>Node5&#45;&gt;Node3</title>
<g id="a_edge5_Node000005_Node000003"><a xlink:title=" ">
<path fill="none" stroke="#63b8ff" d="M177.21,-55.59C165.76,-47.67 149.13,-36.16 135.64,-26.82"/>
<polygon fill="#63b8ff" stroke="#63b8ff" points="137.94,-24.16 127.73,-21.34 133.96,-29.91 137.94,-24.16"/>
</a>
</g>
</g>
<!-- Node5&#45;&gt;Node6 -->
<g id="edge6_Node000005_Node000006" class="edge">
<title>Node5&#45;&gt;Node6</title>
<g id="a_edge6_Node000005_Node000006"><a xlink:title=" ">
<path fill="none" stroke="#63b8ff" d="M195.15,-55.59C198.34,-48.7 202.78,-39.1 206.73,-30.57"/>
<polygon fill="#63b8ff" stroke="#63b8ff" points="209.83,-32.22 210.85,-21.67 203.47,-29.28 209.83,-32.22"/>
</a>
</g>
</g>
<!-- Node7&#45;&gt;Node3 -->
<g id="edge8_Node000007_Node000003" class="edge">
<title>Node7&#45;&gt;Node3</title>
<g id="a_edge8_Node000007_Node000003"><a xlink:title=" ">
<path fill="none" stroke="#63b8ff" d="M112.79,-55.59C112.79,-49.01 112.79,-39.96 112.79,-31.73"/>
<polygon fill="#63b8ff" stroke="#63b8ff" points="116.29,-31.81 112.79,-21.81 109.29,-31.81 116.29,-31.81"/>
</a>
</g>
</g>
</g>
</svg>
