<?xml version="1.0" encoding="UTF-8" standalone="no"?>
<!DOCTYPE svg PUBLIC "-//W3C//DTD SVG 1.1//EN"
 "http://www.w3.org/Graphics/SVG/1.1/DTD/svg11.dtd">
<!-- Generated by graphviz version 12.2.0 (20241103.1931)
 -->
<!-- Title: Player.h Pages: 1 -->
<svg width="239pt" height="140pt"
 viewBox="0.00 0.00 238.62 140.00" xmlns="http://www.w3.org/2000/svg" xmlns:xlink="http://www.w3.org/1999/xlink">

<svg id="main" version="1.1" xmlns="http://www.w3.org/2000/svg" xmlns:xlink="http://www.w3.org/1999/xlink" xml:space="preserve">

<style type="text/css"><![CDATA[
.node, .edge {opacity: 0.7;}
.node.selected, .edge.selected {opacity: 1;}
.edge:hover path { stroke: red; }
.edge:hover polygon { stroke: red; fill: red; }
]]></style>
<script type="application/ecmascript" xlink:href="svg.min.js"/>
<svg id="graph" class="graph">
<g id="graph0" class="graph" transform="scale(1 1) rotate(0) translate(4 136)">
<title>Player.h</title>
<!-- Node1 -->
<g id="Node000001" class="node">
<title>Node1</title>
<g id="a_Node000001"><a xlink:title="Base player class and derived player types for blackjack.">
<polygon fill="#999999" stroke="#666666" points="176.38,-132 124.38,-132 124.38,-112 176.38,-112 176.38,-132"/>
<text text-anchor="middle" x="150.38" y="-118.5" font-family="Helvetica,sans-Serif" font-size="10.00">Player.h</text>
</a>
</g>
</g>
<!-- Node2 -->
<g id="Node000002" class="node">
<title>Node2</title>
<g id="a_Node000002"><a xlink:href="_black_jack_game_8h.html" target="_top" xlink:title="Main game controller class for Blackjack card game.">
<polygon fill="white" stroke="#666666" points="150.5,-76 54.25,-76 54.25,-56 150.5,-56 150.5,-76"/>
<text text-anchor="middle" x="102.38" y="-62.5" font-family="Helvetica,sans-Serif" font-size="10.00">BlackJackGame.h</text>
</a>
</g>
</g>
<!-- Node1&#45;&gt;Node2 -->
<g id="edge1_Node000001_Node000002" class="edge">
<title>Node1&#45;&gt;Node2</title>
<g id="a_edge1_Node000001_Node000002"><a xlink:title=" ">
<path fill="none" stroke="#63b8ff" d="M134.38,-103C126.43,-94.06 117.15,-83.62 110.64,-76.3"/>
<polygon fill="#63b8ff" stroke="#63b8ff" points="131.75,-105.31 141.01,-110.46 136.98,-100.66 131.75,-105.31"/>
</a>
</g>
</g>
<!-- Node5 -->
<g id="Node000005" class="node">
<title>Node5</title>
<g id="a_Node000005"><a xlink:href="_player_8cpp.html" target="_top" xlink:title="Implementation of Player base class and derived Human/Dealer classes.">
<polygon fill="white" stroke="#666666" points="230.62,-76 168.12,-76 168.12,-56 230.62,-56 230.62,-76"/>
<text text-anchor="middle" x="199.38" y="-62.5" font-family="Helvetica,sans-Serif" font-size="10.00">Player.cpp</text>
</a>
</g>
</g>
<!-- Node1&#45;&gt;Node5 -->
<g id="edge4_Node000001_Node000005" class="edge">
<title>Node1&#45;&gt;Node5</title>
<g id="a_edge4_Node000001_Node000005"><a xlink:title=" ">
<path fill="none" stroke="#63b8ff" d="M166.45,-103.29C174.62,-94.28 184.22,-83.7 190.94,-76.3"/>
<polygon fill="#63b8ff" stroke="#63b8ff" points="164.06,-100.72 159.93,-110.47 169.24,-105.42 164.06,-100.72"/>
</a>
</g>
</g>
<!-- Node3 -->
<g id="Node000003" class="node">
<title>Node3</title>
<g id="a_Node000003"><a xlink:href="_black_jack_game_8cpp.html" target="_top" xlink:title="Implementation of BlackJack game controller class.">
<polygon fill="white" stroke="#666666" points="106.75,-20 0,-20 0,0 106.75,0 106.75,-20"/>
<text text-anchor="middle" x="53.38" y="-6.5" font-family="Helvetica,sans-Serif" font-size="10.00">BlackJackGame.cpp</text>
</a>
</g>
</g>
<!-- Node2&#45;&gt;Node3 -->
<g id="edge2_Node000002_Node000003" class="edge">
<title>Node2&#45;&gt;Node3</title>
<g id="a_edge2_Node000002_Node000003"><a xlink:title=" ">
<path fill="none" stroke="#63b8ff" d="M86.3,-47.29C78.13,-38.28 68.53,-27.7 61.81,-20.3"/>
<polygon fill="#63b8ff" stroke="#63b8ff" points="83.51,-49.42 92.82,-54.47 88.69,-44.72 83.51,-49.42"/>
</a>
</g>
</g>
<!-- Node4 -->
<g id="Node000004" class="node">
<title>Node4</title>
<g id="a_Node000004"><a xlink:href="main_8cpp.html" target="_top" xlink:title="Main entry point for Blackjack game.">
<polygon fill="white" stroke="#666666" points="180.25,-20 124.5,-20 124.5,0 180.25,0 180.25,-20"/>
<text text-anchor="middle" x="152.38" y="-6.5" font-family="Helvetica,sans-Serif" font-size="10.00">main.cpp</text>
</a>
</g>
</g>
<!-- Node2&#45;&gt;Node4 -->
<g id="edge3_Node000002_Node000004" class="edge">
<title>Node2&#45;&gt;Node4</title>
<g id="a_edge3_Node000002_Node000004"><a xlink:title=" ">
<path fill="none" stroke="#63b8ff" d="M118.78,-47.29C127.12,-38.28 136.91,-27.7 143.77,-20.3"/>
<polygon fill="#63b8ff" stroke="#63b8ff" points="116.34,-44.77 112.11,-54.48 121.47,-49.52 116.34,-44.77"/>
</a>
</g>
</g>
</g>
</svg>
</svg>

<style type='text/css'>
<![CDATA[
[data-mouse-over-selected='false'] { opacity: 0.7; }
[data-mouse-over-selected='true']  { opacity: 1.0; }
]]>
</style>
<script type="application/ecmascript"><![CDATA[
document.addEventListener('DOMContentLoaded', (event) => {
  highlightEdges();
  highlightAdjacentNodes();
});
]]></script>
</svg>
