<?xml version="1.0" encoding="UTF-8" standalone="no"?>
<!DOCTYPE svg PUBLIC "-//W3C//DTD SVG 1.1//EN"
 "http://www.w3.org/Graphics/SVG/1.1/DTD/svg11.dtd">
<!-- Generated by graphviz version 12.2.0 (20241103.1931)
 -->
<!-- Title: Player.h Pages: 1 -->
<svg width="225pt" height="140pt"
 viewBox="0.00 0.00 224.76 140.00" xmlns="http://www.w3.org/2000/svg" xmlns:xlink="http://www.w3.org/1999/xlink">

<svg id="main" version="1.1" xmlns="http://www.w3.org/2000/svg" xmlns:xlink="http://www.w3.org/1999/xlink" xml:space="preserve">

<style type="text/css"><![CDATA[
.node, .edge {opacity: 0.7;}
.node.selected, .edge.selected {opacity: 1;}
.edge:hover path { stroke: red; }
.edge:hover polygon { stroke: red; fill: red; }
]]></style>
<script type="application/ecmascript" xlink:href="svg.min.js"/>
<svg id="graph" class="graph">
<g id="graph0" class="graph" transform="scale(1 1) rotate(0) translate(4 136)">
<title>Player.h</title>
<!-- Node1 -->
<g id="Node000001" class="node">
<title>Node1</title>
<g id="a_Node000001"><a xlink:title="Base player class and derived player types for blackjack.">
<polygon fill="#999999" stroke="#666666" points="99.01,-132 47.01,-132 47.01,-112 99.01,-112 99.01,-132"/>
<text text-anchor="middle" x="73.01" y="-118.5" font-family="Helvetica,sans-Serif" font-size="10.00">Player.h</text>
</a>
</g>
</g>
<!-- Node2 -->
<g id="Node000002" class="node">
<title>Node2</title>
<g id="a_Node000002"><a xlink:title=" ">
<polygon fill="#e0e0e0" stroke="#999999" points="132.01,-20 92.01,-20 92.01,0 132.01,0 132.01,-20"/>
<text text-anchor="middle" x="112.01" y="-6.5" font-family="Helvetica,sans-Serif" font-size="10.00">string</text>
</a>
</g>
</g>
<!-- Node1&#45;&gt;Node2 -->
<g id="edge1_Node000001_Node000002" class="edge">
<title>Node1&#45;&gt;Node2</title>
<g id="a_edge1_Node000001_Node000002"><a xlink:title=" ">
<path fill="none" stroke="#63b8ff" d="M49.17,-111.6C23.59,-100.06 -11.42,-79.14 4.01,-56 20.93,-30.61 55.18,-19.53 80.59,-14.7"/>
<polygon fill="#63b8ff" stroke="#63b8ff" points="81.1,-18.16 90.4,-13.09 79.97,-11.25 81.1,-18.16"/>
</a>
</g>
</g>
<!-- Node3 -->
<g id="Node000003" class="node">
<title>Node3</title>
<g id="a_Node000003"><a xlink:title=" ">
<polygon fill="#e0e0e0" stroke="#999999" points="56.51,-76 13.51,-76 13.51,-56 56.51,-56 56.51,-76"/>
<text text-anchor="middle" x="35.01" y="-62.5" font-family="Helvetica,sans-Serif" font-size="10.00">vector</text>
</a>
</g>
</g>
<!-- Node1&#45;&gt;Node3 -->
<g id="edge2_Node000001_Node000003" class="edge">
<title>Node1&#45;&gt;Node3</title>
<g id="a_edge2_Node000001_Node000003"><a xlink:title=" ">
<path fill="none" stroke="#63b8ff" d="M66.39,-111.59C61.32,-104.39 54.17,-94.23 47.98,-85.43"/>
<polygon fill="#63b8ff" stroke="#63b8ff" points="51.04,-83.7 42.42,-77.54 45.31,-87.73 51.04,-83.7"/>
</a>
</g>
</g>
<!-- Node4 -->
<g id="Node000004" class="node">
<title>Node4</title>
<g id="a_Node000004"><a xlink:href="_card_8h.html" target="_top" xlink:title="Playing card class implementation.">
<polygon fill="white" stroke="#666666" points="212.63,-76 167.38,-76 167.38,-56 212.63,-56 212.63,-76"/>
<text text-anchor="middle" x="190.01" y="-62.5" font-family="Helvetica,sans-Serif" font-size="10.00">Card.h</text>
</a>
</g>
</g>
<!-- Node1&#45;&gt;Node4 -->
<g id="edge3_Node000001_Node000004" class="edge">
<title>Node1&#45;&gt;Node4</title>
<g id="a_edge3_Node000001_Node000004"><a xlink:title=" ">
<path fill="none" stroke="#63b8ff" d="M93.39,-111.59C111.56,-103.21 138.43,-90.8 159.23,-81.21"/>
<polygon fill="#63b8ff" stroke="#63b8ff" points="160.48,-84.48 168.09,-77.11 157.55,-78.13 160.48,-84.48"/>
</a>
</g>
</g>
<!-- Node6 -->
<g id="Node000006" class="node">
<title>Node6</title>
<g id="a_Node000006"><a xlink:href="_player_stats_8h.html" target="_top" xlink:title="Player statistics tracking implementation.">
<polygon fill="white" stroke="#666666" points="149.63,-76 74.38,-76 74.38,-56 149.63,-56 149.63,-76"/>
<text text-anchor="middle" x="112.01" y="-62.5" font-family="Helvetica,sans-Serif" font-size="10.00">PlayerStats.h</text>
</a>
</g>
</g>
<!-- Node1&#45;&gt;Node6 -->
<g id="edge6_Node000001_Node000006" class="edge">
<title>Node1&#45;&gt;Node6</title>
<g id="a_edge6_Node000001_Node000006"><a xlink:title=" ">
<path fill="none" stroke="#63b8ff" d="M79.8,-111.59C85,-104.39 92.34,-94.23 98.7,-85.43"/>
<polygon fill="#63b8ff" stroke="#63b8ff" points="101.39,-87.68 104.41,-77.53 95.71,-83.58 101.39,-87.68"/>
</a>
</g>
</g>
<!-- Node4&#45;&gt;Node2 -->
<g id="edge4_Node000004_Node000002" class="edge">
<title>Node4&#45;&gt;Node2</title>
<g id="a_edge4_Node000004_Node000002"><a xlink:title=" ">
<path fill="none" stroke="#63b8ff" d="M176.42,-55.59C164.97,-47.67 148.34,-36.16 134.85,-26.82"/>
<polygon fill="#63b8ff" stroke="#63b8ff" points="137.16,-24.16 126.94,-21.34 133.17,-29.91 137.16,-24.16"/>
</a>
</g>
</g>
<!-- Node5 -->
<g id="Node000005" class="node">
<title>Node5</title>
<g id="a_Node000005"><a xlink:title=" ">
<polygon fill="#e0e0e0" stroke="#999999" points="216.76,-20 163.26,-20 163.26,0 216.76,0 216.76,-20"/>
<text text-anchor="middle" x="190.01" y="-6.5" font-family="Helvetica,sans-Serif" font-size="10.00">iostream</text>
</a>
</g>
</g>
<!-- Node4&#45;&gt;Node5 -->
<g id="edge5_Node000004_Node000005" class="edge">
<title>Node4&#45;&gt;Node5</title>
<g id="a_edge5_Node000004_Node000005"><a xlink:title=" ">
<path fill="none" stroke="#63b8ff" d="M190.01,-55.59C190.01,-49.01 190.01,-39.96 190.01,-31.73"/>
<polygon fill="#63b8ff" stroke="#63b8ff" points="193.51,-31.81 190.01,-21.81 186.51,-31.81 193.51,-31.81"/>
</a>
</g>
</g>
<!-- Node6&#45;&gt;Node2 -->
<g id="edge7_Node000006_Node000002" class="edge">
<title>Node6&#45;&gt;Node2</title>
<g id="a_edge7_Node000006_Node000002"><a xlink:title=" ">
<path fill="none" stroke="#63b8ff" d="M112.01,-55.59C112.01,-49.01 112.01,-39.96 112.01,-31.73"/>
<polygon fill="#63b8ff" stroke="#63b8ff" points="115.51,-31.81 112.01,-21.81 108.51,-31.81 115.51,-31.81"/>
</a>
</g>
</g>
</g>
</svg>
</svg>

<style type='text/css'>
<![CDATA[
[data-mouse-over-selected='false'] { opacity: 0.7; }
[data-mouse-over-selected='true']  { opacity: 1.0; }
]]>
</style>
<script type="application/ecmascript"><![CDATA[
document.addEventListener('DOMContentLoaded', (event) => {
  highlightEdges();
  highlightAdjacentNodes();
});
]]></script>
</svg>
