<?xml version="1.0" encoding="UTF-8" standalone="no"?>
<!DOCTYPE svg PUBLIC "-//W3C//DTD SVG 1.1//EN"
 "http://www.w3.org/Graphics/SVG/1.1/DTD/svg11.dtd">
<!-- Generated by graphviz version 12.2.0 (20241103.1931)
 -->
<!-- Title: Human Pages: 1 -->
<svg width="88pt" height="633pt"
 viewBox="0.00 0.00 88.25 633.00" xmlns="http://www.w3.org/2000/svg" xmlns:xlink="http://www.w3.org/1999/xlink">
<g id="graph0" class="graph" transform="scale(1 1) rotate(0) translate(4 629)">
<title>Human</title>
<!-- Node1 -->
<g id="Node000001" class="node">
<title>Node1</title>
<g id="a_Node000001"><a xlink:title="Human player class Implements interactive player decisions.">
<polygon fill="#999999" stroke="none" points="72.75,-84 7.5,-84 7.5,0 72.75,0 72.75,-84"/>
<text text-anchor="start" x="24.38" y="-70.5" font-family="Helvetica,sans-Serif" font-size="10.00">Human</text>
<text text-anchor="start" x="38.62" y="-54.5" font-family="Helvetica,sans-Serif" font-size="10.00"> </text>
<text text-anchor="start" x="11.5" y="-38.5" font-family="Helvetica,sans-Serif" font-size="10.00">+</text>
<text text-anchor="start" x="21.5" y="-38.5" font-family="Helvetica,sans-Serif" font-size="10.00">Human()</text>
<text text-anchor="start" x="11.5" y="-22.5" font-family="Helvetica,sans-Serif" font-size="10.00">+</text>
<text text-anchor="start" x="21.5" y="-22.5" font-family="Helvetica,sans-Serif" font-size="10.00">wantHit()</text>
<text text-anchor="start" x="11.5" y="-6.5" font-family="Helvetica,sans-Serif" font-size="10.00">+</text>
<text text-anchor="start" x="21.5" y="-6.5" font-family="Helvetica,sans-Serif" font-size="10.00">dispHand()</text>
<polygon fill="#666666" stroke="#666666" points="7.5,-66 7.5,-66 72.75,-66 72.75,-66 7.5,-66"/>
<polygon fill="#666666" stroke="#666666" points="7.5,-50 7.5,-50 72.75,-50 72.75,-50 7.5,-50"/>
<polygon fill="none" stroke="#666666" points="7.5,0 7.5,-84 72.75,-84 72.75,0 7.5,0"/>
</a>
</g>
</g>
<!-- Node2 -->
<g id="Node000002" class="node">
<title>Node2</title>
<g id="a_Node000002"><a xlink:href="class_player.html" target="_top" xlink:title="Abstract base class for blackjack players Defines common functionality for managing hands,...">
<polygon fill="white" stroke="none" points="80.25,-381 0,-381 0,-121 80.25,-121 80.25,-381"/>
<text text-anchor="start" x="26.25" y="-367.5" font-family="Helvetica,sans-Serif" font-size="10.00">Player</text>
<text text-anchor="start" x="4.38" y="-351.5" font-family="Helvetica,sans-Serif" font-size="10.00">#</text>
<text text-anchor="start" x="14" y="-351.5" font-family="Helvetica,sans-Serif" font-size="10.00">name</text>
<text text-anchor="start" x="4.38" y="-335.5" font-family="Helvetica,sans-Serif" font-size="10.00">#</text>
<text text-anchor="start" x="14" y="-335.5" font-family="Helvetica,sans-Serif" font-size="10.00">hand</text>
<text text-anchor="start" x="4.38" y="-319.5" font-family="Helvetica,sans-Serif" font-size="10.00">#</text>
<text text-anchor="start" x="14" y="-319.5" font-family="Helvetica,sans-Serif" font-size="10.00">funds</text>
<text text-anchor="start" x="4.38" y="-303.5" font-family="Helvetica,sans-Serif" font-size="10.00">#</text>
<text text-anchor="start" x="14" y="-303.5" font-family="Helvetica,sans-Serif" font-size="10.00">bet</text>
<text text-anchor="start" x="4" y="-287.5" font-family="Helvetica,sans-Serif" font-size="10.00">+</text>
<text text-anchor="start" x="14" y="-287.5" font-family="Helvetica,sans-Serif" font-size="10.00">Player()</text>
<text text-anchor="start" x="4" y="-271.5" font-family="Helvetica,sans-Serif" font-size="10.00">+</text>
<text text-anchor="start" x="14" y="-271.5" font-family="Helvetica,sans-Serif" font-size="10.00">Player()</text>
<text text-anchor="start" x="4" y="-255.5" font-family="Helvetica,sans-Serif" font-size="10.00">+</text>
<text text-anchor="start" x="14" y="-255.5" font-family="Helvetica,sans-Serif" font-size="10.00">~Player()</text>
<text text-anchor="start" x="4" y="-239.5" font-family="Helvetica,sans-Serif" font-size="10.00">+</text>
<text text-anchor="start" x="14" y="-239.5" font-family="Helvetica,sans-Serif" font-size="10.00">wantHit()</text>
<text text-anchor="start" x="4" y="-223.5" font-family="Helvetica,sans-Serif" font-size="10.00">+</text>
<text text-anchor="start" x="14" y="-223.5" font-family="Helvetica,sans-Serif" font-size="10.00">dispHand()</text>
<text text-anchor="start" x="4" y="-207.5" font-family="Helvetica,sans-Serif" font-size="10.00">+</text>
<text text-anchor="start" x="14" y="-207.5" font-family="Helvetica,sans-Serif" font-size="10.00">addCard()</text>
<text text-anchor="start" x="4" y="-191.5" font-family="Helvetica,sans-Serif" font-size="10.00">+</text>
<text text-anchor="start" x="14" y="-191.5" font-family="Helvetica,sans-Serif" font-size="10.00">getVal()</text>
<text text-anchor="start" x="4" y="-175.5" font-family="Helvetica,sans-Serif" font-size="10.00">+</text>
<text text-anchor="start" x="14" y="-175.5" font-family="Helvetica,sans-Serif" font-size="10.00">isBust()</text>
<text text-anchor="start" x="4" y="-159.5" font-family="Helvetica,sans-Serif" font-size="10.00">+</text>
<text text-anchor="start" x="14" y="-159.5" font-family="Helvetica,sans-Serif" font-size="10.00">clear()</text>
<text text-anchor="start" x="4" y="-143.5" font-family="Helvetica,sans-Serif" font-size="10.00">+</text>
<text text-anchor="start" x="14" y="-143.5" font-family="Helvetica,sans-Serif" font-size="10.00">setBet()</text>
<text text-anchor="start" x="14" y="-127.5" font-family="Helvetica,sans-Serif" font-size="10.00">and 11 more...</text>
<polygon fill="#666666" stroke="#666666" points="0,-363 0,-363 80.25,-363 80.25,-363 0,-363"/>
<polygon fill="#666666" stroke="#666666" points="0,-299 0,-299 12,-299 12,-299 0,-299"/>
<polygon fill="#666666" stroke="#666666" points="12,-299 12,-299 80.25,-299 80.25,-299 12,-299"/>
<polygon fill="none" stroke="#666666" points="0,-121 0,-381 80.25,-381 80.25,-121 0,-121"/>
</a>
</g>
</g>
<!-- Node2&#45;&gt;Node1 -->
<g id="edge1_Node000001_Node000002" class="edge">
<title>Node2&#45;&gt;Node1</title>
<g id="a_edge1_Node000001_Node000002"><a xlink:title=" ">
<path fill="none" stroke="#63b8ff" d="M40.12,-110.05C40.12,-100.66 40.12,-91.73 40.12,-83.63"/>
<polygon fill="none" stroke="#63b8ff" points="36.63,-109.74 40.13,-119.74 43.63,-109.74 36.63,-109.74"/>
</a>
</g>
</g>
<!-- Node3 -->
<g id="Node000003" class="node">
<title>Node3</title>
<g id="a_Node000003"><a xlink:href="class_p_stats.html" target="_top" xlink:title="Player statistics manager Tracks game results and calculates statistics.">
<polygon fill="white" stroke="none" points="72.75,-625 7.5,-625 7.5,-429 72.75,-429 72.75,-625"/>
<text text-anchor="start" x="25.12" y="-611.5" font-family="Helvetica,sans-Serif" font-size="10.00">PStats</text>
<text text-anchor="start" x="38.62" y="-595.5" font-family="Helvetica,sans-Serif" font-size="10.00"> </text>
<text text-anchor="start" x="11.5" y="-579.5" font-family="Helvetica,sans-Serif" font-size="10.00">+</text>
<text text-anchor="start" x="21.5" y="-579.5" font-family="Helvetica,sans-Serif" font-size="10.00">PStats()</text>
<text text-anchor="start" x="11.5" y="-563.5" font-family="Helvetica,sans-Serif" font-size="10.00">+</text>
<text text-anchor="start" x="21.5" y="-563.5" font-family="Helvetica,sans-Serif" font-size="10.00">PStats()</text>
<text text-anchor="start" x="11.5" y="-547.5" font-family="Helvetica,sans-Serif" font-size="10.00">+</text>
<text text-anchor="start" x="21.5" y="-547.5" font-family="Helvetica,sans-Serif" font-size="10.00">~PStats()</text>
<text text-anchor="start" x="11.5" y="-531.5" font-family="Helvetica,sans-Serif" font-size="10.00">+</text>
<text text-anchor="start" x="21.5" y="-531.5" font-family="Helvetica,sans-Serif" font-size="10.00">operator=()</text>
<text text-anchor="start" x="11.5" y="-515.5" font-family="Helvetica,sans-Serif" font-size="10.00">+</text>
<text text-anchor="start" x="21.5" y="-515.5" font-family="Helvetica,sans-Serif" font-size="10.00">operator+()</text>
<text text-anchor="start" x="11.5" y="-499.5" font-family="Helvetica,sans-Serif" font-size="10.00">+</text>
<text text-anchor="start" x="21.5" y="-499.5" font-family="Helvetica,sans-Serif" font-size="10.00">operator&lt;()</text>
<text text-anchor="start" x="11.5" y="-483.5" font-family="Helvetica,sans-Serif" font-size="10.00">+</text>
<text text-anchor="start" x="21.5" y="-483.5" font-family="Helvetica,sans-Serif" font-size="10.00">add()</text>
<text text-anchor="start" x="11.5" y="-467.5" font-family="Helvetica,sans-Serif" font-size="10.00">+</text>
<text text-anchor="start" x="21.5" y="-467.5" font-family="Helvetica,sans-Serif" font-size="10.00">getRate()</text>
<text text-anchor="start" x="11.5" y="-451.5" font-family="Helvetica,sans-Serif" font-size="10.00">+</text>
<text text-anchor="start" x="21.5" y="-451.5" font-family="Helvetica,sans-Serif" font-size="10.00">setAll()</text>
<text text-anchor="start" x="11.5" y="-435.5" font-family="Helvetica,sans-Serif" font-size="10.00">+</text>
<text text-anchor="start" x="21.5" y="-435.5" font-family="Helvetica,sans-Serif" font-size="10.00">getAll()</text>
<polygon fill="#666666" stroke="#666666" points="7.5,-607 7.5,-607 72.75,-607 72.75,-607 7.5,-607"/>
<polygon fill="#666666" stroke="#666666" points="7.5,-591 7.5,-591 72.75,-591 72.75,-591 7.5,-591"/>
<polygon fill="none" stroke="#666666" points="7.5,-429 7.5,-625 72.75,-625 72.75,-429 7.5,-429"/>
</a>
</g>
</g>
<!-- Node3&#45;&gt;Node2 -->
<g id="edge2_Node000002_Node000003" class="edge">
<title>Node3&#45;&gt;Node2</title>
<g id="a_edge2_Node000002_Node000003"><a xlink:title=" ">
<path fill="none" stroke="#63b8ff" d="M40.12,-429.01C40.12,-417.48 40.12,-405.53 40.12,-393.54"/>
<polygon fill="none" stroke="#63b8ff" points="40.13,-393.43 36.13,-387.43 40.13,-381.43 44.13,-387.43 40.13,-393.43"/>
</a>
</g>
<text text-anchor="middle" x="55.12" y="-401.5" font-family="Helvetica,sans-Serif" font-size="10.00" fill="grey"> #stats</text>
</g>
</g>
</svg>
