<?xml version="1.0" encoding="UTF-8" standalone="no"?>
<!DOCTYPE svg PUBLIC "-//W3C//DTD SVG 1.1//EN"
 "http://www.w3.org/Graphics/SVG/1.1/DTD/svg11.dtd">
<!-- Generated by graphviz version 12.2.0 (20241103.1931)
 -->
<!-- Title: Player::getVal Pages: 1 -->
<svg width="216pt" height="142pt"
 viewBox="0.00 0.00 215.50 142.00" xmlns="http://www.w3.org/2000/svg" xmlns:xlink="http://www.w3.org/1999/xlink">

<svg id="main" version="1.1" xmlns="http://www.w3.org/2000/svg" xmlns:xlink="http://www.w3.org/1999/xlink" xml:space="preserve">

<style type="text/css"><![CDATA[
.node, .edge {opacity: 0.7;}
.node.selected, .edge.selected {opacity: 1;}
.edge:hover path { stroke: red; }
.edge:hover polygon { stroke: red; fill: red; }
]]></style>
<script type="application/ecmascript" xlink:href="svg.min.js"/>
<svg id="graph" class="graph">
<g id="graph0" class="graph" transform="scale(1 1) rotate(0) translate(4 138)">
<title>Player::getVal</title>
<!-- Node1 -->
<g id="Node000001" class="node">
<title>Node1</title>
<g id="a_Node000001"><a xlink:title="Calculate hand value.">
<polygon fill="#999999" stroke="#666666" points="207.5,-77 130.75,-77 130.75,-57 207.5,-57 207.5,-77"/>
<text text-anchor="middle" x="169.12" y="-63.5" font-family="Helvetica,sans-Serif" font-size="10.00">Player::getVal</text>
</a>
</g>
</g>
<!-- Node2 -->
<g id="Node000002" class="node">
<title>Node2</title>
<g id="a_Node000002"><a xlink:href="class_human.html#a41589a8a97907c66a633f2aecab9c440" target="_top" xlink:title="Display human player&#39;s hand.">
<polygon fill="white" stroke="#666666" points="94.75,-134 0,-134 0,-114 94.75,-114 94.75,-134"/>
<text text-anchor="middle" x="47.38" y="-120.5" font-family="Helvetica,sans-Serif" font-size="10.00">Human::dispHand</text>
</a>
</g>
</g>
<!-- Node1&#45;&gt;Node2 -->
<g id="edge1_Node000001_Node000002" class="edge">
<title>Node1&#45;&gt;Node2</title>
<g id="a_edge1_Node000001_Node000002"><a xlink:title=" ">
<path fill="none" stroke="#63b8ff" d="M139.01,-82.84C125.66,-89.9 109.54,-98.16 94.75,-105 88.43,-107.92 81.54,-110.87 75.04,-113.55"/>
<polygon fill="#63b8ff" stroke="#63b8ff" points="140.54,-85.99 147.71,-78.19 137.24,-79.81 140.54,-85.99"/>
</a>
</g>
</g>
<!-- Node3 -->
<g id="Node000003" class="node">
<title>Node3</title>
<g id="a_Node000003"><a xlink:href="class_player.html#ac87d002aca38e7e814d5bf6e97c432e1" target="_top" xlink:title="Check if hand value exceeds 21.">
<polygon fill="white" stroke="#666666" points="86.12,-96 8.62,-96 8.62,-76 86.12,-76 86.12,-96"/>
<text text-anchor="middle" x="47.38" y="-82.5" font-family="Helvetica,sans-Serif" font-size="10.00">Player::isBust</text>
</a>
</g>
</g>
<!-- Node1&#45;&gt;Node3 -->
<g id="edge2_Node000001_Node000003" class="edge">
<title>Node1&#45;&gt;Node3</title>
<g id="a_edge2_Node000001_Node000003"><a xlink:title=" ">
<path fill="none" stroke="#63b8ff" d="M119.32,-74.74C108.28,-76.5 96.72,-78.33 86.21,-80"/>
<polygon fill="#63b8ff" stroke="#63b8ff" points="119.74,-78.22 129.07,-73.2 118.64,-71.31 119.74,-78.22"/>
</a>
</g>
</g>
<!-- Node4 -->
<g id="Node000004" class="node">
<title>Node4</title>
<g id="a_Node000004"><a xlink:href="class_dealer.html#a6b2d9774b8d0cff1595f38c6f891bf77" target="_top" xlink:title="Display all cards in dealer&#39;s hand.">
<polygon fill="white" stroke="#666666" points="89.88,-58 4.88,-58 4.88,-38 89.88,-38 89.88,-58"/>
<text text-anchor="middle" x="47.38" y="-44.5" font-family="Helvetica,sans-Serif" font-size="10.00">Dealer::showAll</text>
</a>
</g>
</g>
<!-- Node1&#45;&gt;Node4 -->
<g id="edge3_Node000001_Node000004" class="edge">
<title>Node1&#45;&gt;Node4</title>
<g id="a_edge3_Node000001_Node000004"><a xlink:title=" ">
<path fill="none" stroke="#63b8ff" d="M119.37,-59.26C109.61,-57.72 99.45,-56.1 89.97,-54.6"/>
<polygon fill="#63b8ff" stroke="#63b8ff" points="118.64,-62.69 129.07,-60.8 119.74,-55.78 118.64,-62.69"/>
</a>
</g>
</g>
<!-- Node5 -->
<g id="Node000005" class="node">
<title>Node5</title>
<g id="a_Node000005"><a xlink:href="class_dealer.html#a832662f2a7de35cdb6c3c68259056278" target="_top" xlink:title="Get dealer&#39;s hit decision based on rules.">
<polygon fill="white" stroke="#666666" points="89.5,-20 5.25,-20 5.25,0 89.5,0 89.5,-20"/>
<text text-anchor="middle" x="47.38" y="-6.5" font-family="Helvetica,sans-Serif" font-size="10.00">Dealer::wantHit</text>
</a>
</g>
</g>
<!-- Node1&#45;&gt;Node5 -->
<g id="edge4_Node000001_Node000005" class="edge">
<title>Node1&#45;&gt;Node5</title>
<g id="a_edge4_Node000001_Node000005"><a xlink:title=" ">
<path fill="none" stroke="#63b8ff" d="M139.01,-51.16C125.66,-44.1 109.54,-35.84 94.75,-29 88.43,-26.08 81.54,-23.13 75.04,-20.45"/>
<polygon fill="#63b8ff" stroke="#63b8ff" points="137.24,-54.19 147.71,-55.81 140.54,-48.01 137.24,-54.19"/>
</a>
</g>
</g>
</g>
</svg>
</svg>

<style type='text/css'>
<![CDATA[
[data-mouse-over-selected='false'] { opacity: 0.7; }
[data-mouse-over-selected='true']  { opacity: 1.0; }
]]>
</style>
<script type="application/ecmascript"><![CDATA[
document.addEventListener('DOMContentLoaded', (event) => {
  highlightEdges();
  highlightAdjacentNodes();
});
]]></script>
</svg>
