<?xml version="1.0" encoding="UTF-8" standalone="no"?>
<!DOCTYPE svg PUBLIC "-//W3C//DTD SVG 1.1//EN"
 "http://www.w3.org/Graphics/SVG/1.1/DTD/svg11.dtd">
<!-- Generated by graphviz version 12.2.0 (20241103.1931)
 -->
<!-- Title: Dealer Pages: 1 -->
<svg width="88pt" height="649pt"
 viewBox="0.00 0.00 88.25 649.00" xmlns="http://www.w3.org/2000/svg" xmlns:xlink="http://www.w3.org/1999/xlink">
<g id="graph0" class="graph" transform="scale(1 1) rotate(0) translate(4 645)">
<title>Dealer</title>
<!-- Node1 -->
<g id="Node000001" class="node">
<title>Node1</title>
<g id="a_Node000001"><a xlink:title="Dealer class Implements dealer&#45;specific logic and display.">
<polygon fill="#999999" stroke="none" points="72.75,-100 7.5,-100 7.5,0 72.75,0 72.75,-100"/>
<text text-anchor="start" x="25.88" y="-86.5" font-family="Helvetica,sans-Serif" font-size="10.00">Dealer</text>
<text text-anchor="start" x="38.62" y="-70.5" font-family="Helvetica,sans-Serif" font-size="10.00"> </text>
<text text-anchor="start" x="11.5" y="-54.5" font-family="Helvetica,sans-Serif" font-size="10.00">+</text>
<text text-anchor="start" x="21.5" y="-54.5" font-family="Helvetica,sans-Serif" font-size="10.00">Dealer()</text>
<text text-anchor="start" x="11.5" y="-38.5" font-family="Helvetica,sans-Serif" font-size="10.00">+</text>
<text text-anchor="start" x="21.5" y="-38.5" font-family="Helvetica,sans-Serif" font-size="10.00">wantHit()</text>
<text text-anchor="start" x="11.5" y="-22.5" font-family="Helvetica,sans-Serif" font-size="10.00">+</text>
<text text-anchor="start" x="21.5" y="-22.5" font-family="Helvetica,sans-Serif" font-size="10.00">dispHand()</text>
<text text-anchor="start" x="11.5" y="-6.5" font-family="Helvetica,sans-Serif" font-size="10.00">+</text>
<text text-anchor="start" x="21.5" y="-6.5" font-family="Helvetica,sans-Serif" font-size="10.00">showAll()</text>
<polygon fill="#666666" stroke="#666666" points="7.5,-82 7.5,-82 72.75,-82 72.75,-82 7.5,-82"/>
<polygon fill="#666666" stroke="#666666" points="7.5,-66 7.5,-66 72.75,-66 72.75,-66 7.5,-66"/>
<polygon fill="none" stroke="#666666" points="7.5,0 7.5,-100 72.75,-100 72.75,0 7.5,0"/>
</a>
</g>
</g>
<!-- Node2 -->
<g id="Node000002" class="node">
<title>Node2</title>
<g id="a_Node000002"><a xlink:href="class_player.html" target="_top" xlink:title="Abstract base class for blackjack players Defines common functionality for managing hands,...">
<polygon fill="white" stroke="none" points="80.25,-397 0,-397 0,-137 80.25,-137 80.25,-397"/>
<text text-anchor="start" x="26.25" y="-383.5" font-family="Helvetica,sans-Serif" font-size="10.00">Player</text>
<text text-anchor="start" x="4.38" y="-367.5" font-family="Helvetica,sans-Serif" font-size="10.00">#</text>
<text text-anchor="start" x="14" y="-367.5" font-family="Helvetica,sans-Serif" font-size="10.00">name</text>
<text text-anchor="start" x="4.38" y="-351.5" font-family="Helvetica,sans-Serif" font-size="10.00">#</text>
<text text-anchor="start" x="14" y="-351.5" font-family="Helvetica,sans-Serif" font-size="10.00">hand</text>
<text text-anchor="start" x="4.38" y="-335.5" font-family="Helvetica,sans-Serif" font-size="10.00">#</text>
<text text-anchor="start" x="14" y="-335.5" font-family="Helvetica,sans-Serif" font-size="10.00">funds</text>
<text text-anchor="start" x="4.38" y="-319.5" font-family="Helvetica,sans-Serif" font-size="10.00">#</text>
<text text-anchor="start" x="14" y="-319.5" font-family="Helvetica,sans-Serif" font-size="10.00">bet</text>
<text text-anchor="start" x="4" y="-303.5" font-family="Helvetica,sans-Serif" font-size="10.00">+</text>
<text text-anchor="start" x="14" y="-303.5" font-family="Helvetica,sans-Serif" font-size="10.00">Player()</text>
<text text-anchor="start" x="4" y="-287.5" font-family="Helvetica,sans-Serif" font-size="10.00">+</text>
<text text-anchor="start" x="14" y="-287.5" font-family="Helvetica,sans-Serif" font-size="10.00">Player()</text>
<text text-anchor="start" x="4" y="-271.5" font-family="Helvetica,sans-Serif" font-size="10.00">+</text>
<text text-anchor="start" x="14" y="-271.5" font-family="Helvetica,sans-Serif" font-size="10.00">~Player()</text>
<text text-anchor="start" x="4" y="-255.5" font-family="Helvetica,sans-Serif" font-size="10.00">+</text>
<text text-anchor="start" x="14" y="-255.5" font-family="Helvetica,sans-Serif" font-size="10.00">wantHit()</text>
<text text-anchor="start" x="4" y="-239.5" font-family="Helvetica,sans-Serif" font-size="10.00">+</text>
<text text-anchor="start" x="14" y="-239.5" font-family="Helvetica,sans-Serif" font-size="10.00">dispHand()</text>
<text text-anchor="start" x="4" y="-223.5" font-family="Helvetica,sans-Serif" font-size="10.00">+</text>
<text text-anchor="start" x="14" y="-223.5" font-family="Helvetica,sans-Serif" font-size="10.00">addCard()</text>
<text text-anchor="start" x="4" y="-207.5" font-family="Helvetica,sans-Serif" font-size="10.00">+</text>
<text text-anchor="start" x="14" y="-207.5" font-family="Helvetica,sans-Serif" font-size="10.00">getVal()</text>
<text text-anchor="start" x="4" y="-191.5" font-family="Helvetica,sans-Serif" font-size="10.00">+</text>
<text text-anchor="start" x="14" y="-191.5" font-family="Helvetica,sans-Serif" font-size="10.00">isBust()</text>
<text text-anchor="start" x="4" y="-175.5" font-family="Helvetica,sans-Serif" font-size="10.00">+</text>
<text text-anchor="start" x="14" y="-175.5" font-family="Helvetica,sans-Serif" font-size="10.00">clear()</text>
<text text-anchor="start" x="4" y="-159.5" font-family="Helvetica,sans-Serif" font-size="10.00">+</text>
<text text-anchor="start" x="14" y="-159.5" font-family="Helvetica,sans-Serif" font-size="10.00">setBet()</text>
<text text-anchor="start" x="14" y="-143.5" font-family="Helvetica,sans-Serif" font-size="10.00">and 11 more...</text>
<polygon fill="#666666" stroke="#666666" points="0,-379 0,-379 80.25,-379 80.25,-379 0,-379"/>
<polygon fill="#666666" stroke="#666666" points="0,-315 0,-315 12,-315 12,-315 0,-315"/>
<polygon fill="#666666" stroke="#666666" points="12,-315 12,-315 80.25,-315 80.25,-315 12,-315"/>
<polygon fill="none" stroke="#666666" points="0,-137 0,-397 80.25,-397 80.25,-137 0,-137"/>
</a>
</g>
</g>
<!-- Node2&#45;&gt;Node1 -->
<g id="edge1_Node000001_Node000002" class="edge">
<title>Node2&#45;&gt;Node1</title>
<g id="a_edge1_Node000001_Node000002"><a xlink:title=" ">
<path fill="none" stroke="#63b8ff" d="M40.12,-125.86C40.12,-116.69 40.12,-107.86 40.12,-99.69"/>
<polygon fill="none" stroke="#63b8ff" points="36.63,-125.7 40.13,-135.7 43.63,-125.7 36.63,-125.7"/>
</a>
</g>
</g>
<!-- Node3 -->
<g id="Node000003" class="node">
<title>Node3</title>
<g id="a_Node000003"><a xlink:href="class_p_stats.html" target="_top" xlink:title="Player statistics manager Tracks game results and calculates statistics.">
<polygon fill="white" stroke="none" points="72.75,-641 7.5,-641 7.5,-445 72.75,-445 72.75,-641"/>
<text text-anchor="start" x="25.12" y="-627.5" font-family="Helvetica,sans-Serif" font-size="10.00">PStats</text>
<text text-anchor="start" x="38.62" y="-611.5" font-family="Helvetica,sans-Serif" font-size="10.00"> </text>
<text text-anchor="start" x="11.5" y="-595.5" font-family="Helvetica,sans-Serif" font-size="10.00">+</text>
<text text-anchor="start" x="21.5" y="-595.5" font-family="Helvetica,sans-Serif" font-size="10.00">PStats()</text>
<text text-anchor="start" x="11.5" y="-579.5" font-family="Helvetica,sans-Serif" font-size="10.00">+</text>
<text text-anchor="start" x="21.5" y="-579.5" font-family="Helvetica,sans-Serif" font-size="10.00">PStats()</text>
<text text-anchor="start" x="11.5" y="-563.5" font-family="Helvetica,sans-Serif" font-size="10.00">+</text>
<text text-anchor="start" x="21.5" y="-563.5" font-family="Helvetica,sans-Serif" font-size="10.00">~PStats()</text>
<text text-anchor="start" x="11.5" y="-547.5" font-family="Helvetica,sans-Serif" font-size="10.00">+</text>
<text text-anchor="start" x="21.5" y="-547.5" font-family="Helvetica,sans-Serif" font-size="10.00">operator=()</text>
<text text-anchor="start" x="11.5" y="-531.5" font-family="Helvetica,sans-Serif" font-size="10.00">+</text>
<text text-anchor="start" x="21.5" y="-531.5" font-family="Helvetica,sans-Serif" font-size="10.00">operator+()</text>
<text text-anchor="start" x="11.5" y="-515.5" font-family="Helvetica,sans-Serif" font-size="10.00">+</text>
<text text-anchor="start" x="21.5" y="-515.5" font-family="Helvetica,sans-Serif" font-size="10.00">operator&lt;()</text>
<text text-anchor="start" x="11.5" y="-499.5" font-family="Helvetica,sans-Serif" font-size="10.00">+</text>
<text text-anchor="start" x="21.5" y="-499.5" font-family="Helvetica,sans-Serif" font-size="10.00">add()</text>
<text text-anchor="start" x="11.5" y="-483.5" font-family="Helvetica,sans-Serif" font-size="10.00">+</text>
<text text-anchor="start" x="21.5" y="-483.5" font-family="Helvetica,sans-Serif" font-size="10.00">getRate()</text>
<text text-anchor="start" x="11.5" y="-467.5" font-family="Helvetica,sans-Serif" font-size="10.00">+</text>
<text text-anchor="start" x="21.5" y="-467.5" font-family="Helvetica,sans-Serif" font-size="10.00">setAll()</text>
<text text-anchor="start" x="11.5" y="-451.5" font-family="Helvetica,sans-Serif" font-size="10.00">+</text>
<text text-anchor="start" x="21.5" y="-451.5" font-family="Helvetica,sans-Serif" font-size="10.00">getAll()</text>
<polygon fill="#666666" stroke="#666666" points="7.5,-623 7.5,-623 72.75,-623 72.75,-623 7.5,-623"/>
<polygon fill="#666666" stroke="#666666" points="7.5,-607 7.5,-607 72.75,-607 72.75,-607 7.5,-607"/>
<polygon fill="none" stroke="#666666" points="7.5,-445 7.5,-641 72.75,-641 72.75,-445 7.5,-445"/>
</a>
</g>
</g>
<!-- Node3&#45;&gt;Node2 -->
<g id="edge2_Node000002_Node000003" class="edge">
<title>Node3&#45;&gt;Node2</title>
<g id="a_edge2_Node000002_Node000003"><a xlink:title=" ">
<path fill="none" stroke="#63b8ff" d="M40.12,-445.01C40.12,-433.48 40.12,-421.53 40.12,-409.54"/>
<polygon fill="none" stroke="#63b8ff" points="40.13,-409.43 36.13,-403.43 40.13,-397.43 44.13,-403.43 40.13,-409.43"/>
</a>
</g>
<text text-anchor="middle" x="55.12" y="-417.5" font-family="Helvetica,sans-Serif" font-size="10.00" fill="grey"> #stats</text>
</g>
</g>
</svg>
