<?xml version="1.0" encoding="UTF-8" standalone="no"?>
<!DOCTYPE svg PUBLIC "-//W3C//DTD SVG 1.1//EN"
 "http://www.w3.org/Graphics/SVG/1.1/DTD/svg11.dtd">
<!-- Generated by graphviz version 12.2.0 (20241103.1931)
 -->
<!-- Title: Human::dispHand Pages: 1 -->
<svg width="228pt" height="104pt"
 viewBox="0.00 0.00 228.25 104.00" xmlns="http://www.w3.org/2000/svg" xmlns:xlink="http://www.w3.org/1999/xlink">
<g id="graph0" class="graph" transform="scale(1 1) rotate(0) translate(4 100)">
<title>Human::dispHand</title>
<!-- Node1 -->
<g id="Node000001" class="node">
<title>Node1</title>
<g id="a_Node000001"><a xlink:title="Display human player&#39;s hand.">
<polygon fill="#999999" stroke="#666666" points="94.75,-58 0,-58 0,-38 94.75,-38 94.75,-58"/>
<text text-anchor="middle" x="47.38" y="-44.5" font-family="Helvetica,sans-Serif" font-size="10.00">Human::dispHand</text>
</a>
</g>
</g>
<!-- Node2 -->
<g id="Node000002" class="node">
<title>Node2</title>
<g id="a_Node000002"><a xlink:href="class_player.html#ae0ccc5586972501fcab0f969cab3bf95" target="_top" xlink:title="Get current funds.">
<polygon fill="white" stroke="#666666" points="218,-96 133,-96 133,-76 218,-76 218,-96"/>
<text text-anchor="middle" x="175.5" y="-82.5" font-family="Helvetica,sans-Serif" font-size="10.00">Player::getFund</text>
</a>
</g>
</g>
<!-- Node1&#45;&gt;Node2 -->
<g id="edge1_Node000001_Node000002" class="edge">
<title>Node1&#45;&gt;Node2</title>
<g id="a_edge1_Node000001_Node000002"><a xlink:title=" ">
<path fill="none" stroke="#63b8ff" d="M83.17,-58.48C97.37,-62.76 113.98,-67.77 129.11,-72.33"/>
<polygon fill="#63b8ff" stroke="#63b8ff" points="127.78,-75.58 138.37,-75.11 129.8,-68.88 127.78,-75.58"/>
</a>
</g>
</g>
<!-- Node3 -->
<g id="Node000003" class="node">
<title>Node3</title>
<g id="a_Node000003"><a xlink:href="class_player.html#a4939193fc637f75bf7a11118334dae7e" target="_top" xlink:title="Get player&#39;s name.">
<polygon fill="white" stroke="#666666" points="220.25,-58 130.75,-58 130.75,-38 220.25,-38 220.25,-58"/>
<text text-anchor="middle" x="175.5" y="-44.5" font-family="Helvetica,sans-Serif" font-size="10.00">Player::getName</text>
</a>
</g>
</g>
<!-- Node1&#45;&gt;Node3 -->
<g id="edge2_Node000001_Node000003" class="edge">
<title>Node1&#45;&gt;Node3</title>
<g id="a_edge2_Node000001_Node000003"><a xlink:title=" ">
<path fill="none" stroke="#63b8ff" d="M94.98,-48C102.9,-48 111.19,-48 119.3,-48"/>
<polygon fill="#63b8ff" stroke="#63b8ff" points="119.08,-51.5 129.08,-48 119.08,-44.5 119.08,-51.5"/>
</a>
</g>
</g>
<!-- Node4 -->
<g id="Node000004" class="node">
<title>Node4</title>
<g id="a_Node000004"><a xlink:href="class_player.html#a26f1447acb4414e57c534cd3b29c47ac" target="_top" xlink:title="Calculate hand value.">
<polygon fill="white" stroke="#666666" points="213.88,-20 137.12,-20 137.12,0 213.88,0 213.88,-20"/>
<text text-anchor="middle" x="175.5" y="-6.5" font-family="Helvetica,sans-Serif" font-size="10.00">Player::getVal</text>
</a>
</g>
</g>
<!-- Node1&#45;&gt;Node4 -->
<g id="edge3_Node000001_Node000004" class="edge">
<title>Node1&#45;&gt;Node4</title>
<g id="a_edge3_Node000001_Node000004"><a xlink:title=" ">
<path fill="none" stroke="#63b8ff" d="M83.17,-37.52C97.37,-33.24 113.98,-28.23 129.11,-23.67"/>
<polygon fill="#63b8ff" stroke="#63b8ff" points="129.8,-27.12 138.37,-20.89 127.78,-20.42 129.8,-27.12"/>
</a>
</g>
</g>
</g>
</svg>
