<?xml version="1.0" encoding="UTF-8" standalone="no"?>
<!DOCTYPE svg PUBLIC "-//W3C//DTD SVG 1.1//EN"
 "http://www.w3.org/Graphics/SVG/1.1/DTD/svg11.dtd">
<!-- Generated by graphviz version 12.2.0 (20241103.1931)
 -->
<!-- Title: Human Pages: 1 -->
<svg width="88pt" height="404pt"
 viewBox="0.00 0.00 88.25 404.00" xmlns="http://www.w3.org/2000/svg" xmlns:xlink="http://www.w3.org/1999/xlink">
<g id="graph0" class="graph" transform="scale(1 1) rotate(0) translate(4 400)">
<title>Human</title>
<!-- Node1 -->
<g id="Node000001" class="node">
<title>Node1</title>
<g id="a_Node000001"><a xlink:title="Human player class Implements interactive player decisions.">
<polygon fill="#999999" stroke="none" points="72.75,-84 7.5,-84 7.5,0 72.75,0 72.75,-84"/>
<text text-anchor="start" x="24.38" y="-70.5" font-family="Helvetica,sans-Serif" font-size="10.00">Human</text>
<text text-anchor="start" x="38.62" y="-54.5" font-family="Helvetica,sans-Serif" font-size="10.00"> </text>
<text text-anchor="start" x="11.5" y="-38.5" font-family="Helvetica,sans-Serif" font-size="10.00">+</text>
<text text-anchor="start" x="21.5" y="-38.5" font-family="Helvetica,sans-Serif" font-size="10.00">Human()</text>
<text text-anchor="start" x="11.5" y="-22.5" font-family="Helvetica,sans-Serif" font-size="10.00">+</text>
<text text-anchor="start" x="21.5" y="-22.5" font-family="Helvetica,sans-Serif" font-size="10.00">wantHit()</text>
<text text-anchor="start" x="11.5" y="-6.5" font-family="Helvetica,sans-Serif" font-size="10.00">+</text>
<text text-anchor="start" x="21.5" y="-6.5" font-family="Helvetica,sans-Serif" font-size="10.00">dispHand()</text>
<polygon fill="#666666" stroke="#666666" points="7.5,-66 7.5,-66 72.75,-66 72.75,-66 7.5,-66"/>
<polygon fill="#666666" stroke="#666666" points="7.5,-50 7.5,-50 72.75,-50 72.75,-50 7.5,-50"/>
<polygon fill="none" stroke="#666666" points="7.5,0 7.5,-84 72.75,-84 72.75,0 7.5,0"/>
</a>
</g>
</g>
<!-- Node2 -->
<g id="Node000002" class="node">
<title>Node2</title>
<g id="a_Node000002"><a xlink:href="class_player.html" target="_top" xlink:title="Abstract base class for blackjack players Defines common functionality for managing hands,...">
<polygon fill="white" stroke="none" points="80.25,-396 0,-396 0,-120 80.25,-120 80.25,-396"/>
<text text-anchor="start" x="26.25" y="-382.5" font-family="Helvetica,sans-Serif" font-size="10.00">Player</text>
<text text-anchor="start" x="4.38" y="-366.5" font-family="Helvetica,sans-Serif" font-size="10.00">#</text>
<text text-anchor="start" x="14" y="-366.5" font-family="Helvetica,sans-Serif" font-size="10.00">name</text>
<text text-anchor="start" x="4.38" y="-350.5" font-family="Helvetica,sans-Serif" font-size="10.00">#</text>
<text text-anchor="start" x="14" y="-350.5" font-family="Helvetica,sans-Serif" font-size="10.00">hand</text>
<text text-anchor="start" x="4.38" y="-334.5" font-family="Helvetica,sans-Serif" font-size="10.00">#</text>
<text text-anchor="start" x="14" y="-334.5" font-family="Helvetica,sans-Serif" font-size="10.00">funds</text>
<text text-anchor="start" x="4.38" y="-318.5" font-family="Helvetica,sans-Serif" font-size="10.00">#</text>
<text text-anchor="start" x="14" y="-318.5" font-family="Helvetica,sans-Serif" font-size="10.00">bet</text>
<text text-anchor="start" x="4.38" y="-302.5" font-family="Helvetica,sans-Serif" font-size="10.00">#</text>
<text text-anchor="start" x="14" y="-302.5" font-family="Helvetica,sans-Serif" font-size="10.00">stats</text>
<text text-anchor="start" x="4" y="-286.5" font-family="Helvetica,sans-Serif" font-size="10.00">+</text>
<text text-anchor="start" x="14" y="-286.5" font-family="Helvetica,sans-Serif" font-size="10.00">Player()</text>
<text text-anchor="start" x="4" y="-270.5" font-family="Helvetica,sans-Serif" font-size="10.00">+</text>
<text text-anchor="start" x="14" y="-270.5" font-family="Helvetica,sans-Serif" font-size="10.00">Player()</text>
<text text-anchor="start" x="4" y="-254.5" font-family="Helvetica,sans-Serif" font-size="10.00">+</text>
<text text-anchor="start" x="14" y="-254.5" font-family="Helvetica,sans-Serif" font-size="10.00">~Player()</text>
<text text-anchor="start" x="4" y="-238.5" font-family="Helvetica,sans-Serif" font-size="10.00">+</text>
<text text-anchor="start" x="14" y="-238.5" font-family="Helvetica,sans-Serif" font-size="10.00">wantHit()</text>
<text text-anchor="start" x="4" y="-222.5" font-family="Helvetica,sans-Serif" font-size="10.00">+</text>
<text text-anchor="start" x="14" y="-222.5" font-family="Helvetica,sans-Serif" font-size="10.00">dispHand()</text>
<text text-anchor="start" x="4" y="-206.5" font-family="Helvetica,sans-Serif" font-size="10.00">+</text>
<text text-anchor="start" x="14" y="-206.5" font-family="Helvetica,sans-Serif" font-size="10.00">addCard()</text>
<text text-anchor="start" x="4" y="-190.5" font-family="Helvetica,sans-Serif" font-size="10.00">+</text>
<text text-anchor="start" x="14" y="-190.5" font-family="Helvetica,sans-Serif" font-size="10.00">getVal()</text>
<text text-anchor="start" x="4" y="-174.5" font-family="Helvetica,sans-Serif" font-size="10.00">+</text>
<text text-anchor="start" x="14" y="-174.5" font-family="Helvetica,sans-Serif" font-size="10.00">isBust()</text>
<text text-anchor="start" x="4" y="-158.5" font-family="Helvetica,sans-Serif" font-size="10.00">+</text>
<text text-anchor="start" x="14" y="-158.5" font-family="Helvetica,sans-Serif" font-size="10.00">clear()</text>
<text text-anchor="start" x="4" y="-142.5" font-family="Helvetica,sans-Serif" font-size="10.00">+</text>
<text text-anchor="start" x="14" y="-142.5" font-family="Helvetica,sans-Serif" font-size="10.00">setBet()</text>
<text text-anchor="start" x="14" y="-126.5" font-family="Helvetica,sans-Serif" font-size="10.00">and 11 more...</text>
<polygon fill="#666666" stroke="#666666" points="0,-378 0,-378 80.25,-378 80.25,-378 0,-378"/>
<polygon fill="#666666" stroke="#666666" points="0,-298 0,-298 12,-298 12,-298 0,-298"/>
<polygon fill="#666666" stroke="#666666" points="12,-298 12,-298 80.25,-298 80.25,-298 12,-298"/>
<polygon fill="none" stroke="#666666" points="0,-120 0,-396 80.25,-396 80.25,-120 0,-120"/>
</a>
</g>
</g>
<!-- Node2&#45;&gt;Node1 -->
<g id="edge1_Node000001_Node000002" class="edge">
<title>Node2&#45;&gt;Node1</title>
<g id="a_edge1_Node000001_Node000002"><a xlink:title=" ">
<path fill="none" stroke="#63b8ff" d="M40.12,-108.78C40.12,-99.89 40.12,-91.45 40.12,-83.76"/>
<polygon fill="none" stroke="#63b8ff" points="36.63,-108.75 40.13,-118.75 43.63,-108.75 36.63,-108.75"/>
</a>
</g>
</g>
</g>
</svg>
