<?xml version="1.0" encoding="UTF-8" standalone="no"?>
<!DOCTYPE svg PUBLIC "-//W3C//DTD SVG 1.1//EN"
 "http://www.w3.org/Graphics/SVG/1.1/DTD/svg11.dtd">
<!-- Generated by graphviz version 12.2.0 (20241103.1931)
 -->
<!-- Title: Game::get Pages: 1 -->
<svg width="197pt" height="66pt"
 viewBox="0.00 0.00 196.75 66.00" xmlns="http://www.w3.org/2000/svg" xmlns:xlink="http://www.w3.org/1999/xlink">
<g id="graph0" class="graph" transform="scale(1 1) rotate(0) translate(4 62)">
<title>Game::get</title>
<!-- Node1 -->
<g id="Node000001" class="node">
<title>Node1</title>
<g id="a_Node000001"><a xlink:title="Get the single instance of the Game class.">
<polygon fill="#999999" stroke="#666666" points="188.75,-39 127,-39 127,-19 188.75,-19 188.75,-39"/>
<text text-anchor="middle" x="157.88" y="-25.5" font-family="Helvetica,sans-Serif" font-size="10.00">Game::get</text>
</a>
</g>
</g>
<!-- Node2 -->
<g id="Node000002" class="node">
<title>Node2</title>
<g id="a_Node000002"><a xlink:href="main_8cpp.html#ae66f6b31b5ad750f1fe042a706a4e3d4" target="_top" xlink:title="Main program entry point.">
<polygon fill="white" stroke="#666666" points="64,-58 27,-58 27,-38 64,-38 64,-58"/>
<text text-anchor="middle" x="45.5" y="-44.5" font-family="Helvetica,sans-Serif" font-size="10.00">main</text>
</a>
</g>
</g>
<!-- Node1&#45;&gt;Node2 -->
<g id="edge1_Node000001_Node000002" class="edge">
<title>Node1&#45;&gt;Node2</title>
<g id="a_edge1_Node000001_Node000002"><a xlink:title=" ">
<path fill="none" stroke="#63b8ff" d="M115.45,-36.13C97.75,-39.18 78.02,-42.57 64.22,-44.95"/>
<polygon fill="#63b8ff" stroke="#63b8ff" points="115.96,-39.59 125.22,-34.45 114.77,-32.7 115.96,-39.59"/>
</a>
</g>
</g>
<!-- Node3 -->
<g id="Node000003" class="node">
<title>Node3</title>
<g id="a_Node000003"><a xlink:href="main_8cpp.html#acb59d740447090dfc6783163b4a1e60b" target="_top" xlink:title="Test function demonstrating friend functionality and exception handling.">
<polygon fill="white" stroke="#666666" points="91,-20 0,-20 0,0 91,0 91,-20"/>
<text text-anchor="middle" x="45.5" y="-6.5" font-family="Helvetica,sans-Serif" font-size="10.00">runBlackjackTest</text>
</a>
</g>
</g>
<!-- Node1&#45;&gt;Node3 -->
<g id="edge2_Node000001_Node000003" class="edge">
<title>Node1&#45;&gt;Node3</title>
<g id="a_edge2_Node000001_Node000003"><a xlink:title=" ">
<path fill="none" stroke="#63b8ff" d="M115.45,-21.87C107.51,-20.5 99.15,-19.06 91.12,-17.68"/>
<polygon fill="#63b8ff" stroke="#63b8ff" points="114.77,-25.3 125.22,-23.55 115.96,-18.41 114.77,-25.3"/>
</a>
</g>
</g>
</g>
</svg>
