<?xml version="1.0" encoding="UTF-8" standalone="no"?>
<!DOCTYPE svg PUBLIC "-//W3C//DTD SVG 1.1//EN"
 "http://www.w3.org/Graphics/SVG/1.1/DTD/svg11.dtd">
<!-- Generated by graphviz version 12.2.0 (20241103.1931)
 -->
<!-- Title: Deck::initializeDeck Pages: 1 -->
<svg width="216pt" height="66pt"
 viewBox="0.00 0.00 216.25 66.00" xmlns="http://www.w3.org/2000/svg" xmlns:xlink="http://www.w3.org/1999/xlink">
<g id="graph0" class="graph" transform="scale(1 1) rotate(0) translate(4 62)">
<title>Deck::initializeDeck</title>
<!-- Node1 -->
<g id="Node000001" class="node">
<title>Node1</title>
<g id="a_Node000001"><a xlink:title="Initialize deck(s) with cards.">
<polygon fill="#999999" stroke="#666666" points="208.25,-39 104.5,-39 104.5,-19 208.25,-19 208.25,-39"/>
<text text-anchor="middle" x="156.38" y="-25.5" font-family="Helvetica,sans-Serif" font-size="10.00">Deck::initializeDeck</text>
</a>
</g>
</g>
<!-- Node2 -->
<g id="Node000002" class="node">
<title>Node2</title>
<g id="a_Node000002"><a xlink:href="class_deck.html#a7cb6b63b067cdaf3de1baeb5534d7271" target="_top" xlink:title="Default constructor. Initializes a single deck.">
<polygon fill="white" stroke="#666666" points="68.5,-58 0,-58 0,-38 68.5,-38 68.5,-58"/>
<text text-anchor="middle" x="34.25" y="-44.5" font-family="Helvetica,sans-Serif" font-size="10.00">Deck::Deck</text>
</a>
</g>
</g>
<!-- Node1&#45;&gt;Node2 -->
<g id="edge1_Node000001_Node000002" class="edge">
<title>Node1&#45;&gt;Node2</title>
<g id="a_edge1_Node000001_Node000002"><a xlink:title=" ">
<path fill="none" stroke="#63b8ff" d="M92.76,-38.9C84.45,-40.22 76.2,-41.52 68.65,-42.72"/>
<polygon fill="#63b8ff" stroke="#63b8ff" points="93.26,-42.37 102.59,-37.35 92.16,-35.45 93.26,-42.37"/>
</a>
</g>
</g>
<!-- Node3 -->
<g id="Node000003" class="node">
<title>Node3</title>
<g id="a_Node000003"><a xlink:href="class_deck.html#a5684451039c5e904d78b6d4b41d55f5d" target="_top" xlink:title="Constructor for multiple decks.">
<polygon fill="white" stroke="#666666" points="68.5,-20 0,-20 0,0 68.5,0 68.5,-20"/>
<text text-anchor="middle" x="34.25" y="-6.5" font-family="Helvetica,sans-Serif" font-size="10.00">Deck::Deck</text>
</a>
</g>
</g>
<!-- Node1&#45;&gt;Node3 -->
<g id="edge2_Node000001_Node000003" class="edge">
<title>Node1&#45;&gt;Node3</title>
<g id="a_edge2_Node000001_Node000003"><a xlink:title=" ">
<path fill="none" stroke="#63b8ff" d="M92.76,-19.1C84.45,-17.78 76.2,-16.48 68.65,-15.28"/>
<polygon fill="#63b8ff" stroke="#63b8ff" points="92.16,-22.55 102.59,-20.65 93.26,-15.63 92.16,-22.55"/>
</a>
</g>
</g>
</g>
</svg>
