<?xml version="1.0" encoding="UTF-8" standalone="no"?>
<!DOCTYPE svg PUBLIC "-//W3C//DTD SVG 1.1//EN"
 "http://www.w3.org/Graphics/SVG/1.1/DTD/svg11.dtd">
<!-- Generated by graphviz version 12.2.0 (20241103.1931)
 -->
<!-- Title: Graphical Class Hierarchy Pages: 1 -->
<svg width="135pt" height="66pt"
 viewBox="0.00 0.00 135.25 66.00" xmlns="http://www.w3.org/2000/svg" xmlns:xlink="http://www.w3.org/1999/xlink">
<g id="graph0" class="graph" transform="scale(1 1) rotate(0) translate(4 62)">
<title>Graphical Class Hierarchy</title>
<!-- Node0 -->
<g id="Node000000" class="node">
<title>Node0</title>
<g id="a_Node000000"><a xlink:href="class_player.html" target="_top" xlink:title="Abstract base class for blackjack players Defines common functionality for managing hands,...">
<polygon fill="white" stroke="#666666" points="43.75,-39 0,-39 0,-19 43.75,-19 43.75,-39"/>
<text text-anchor="middle" x="21.88" y="-25.5" font-family="Helvetica,sans-Serif" font-size="10.00">Player</text>
</a>
</g>
</g>
<!-- Node1 -->
<g id="Node000001" class="node">
<title>Node1</title>
<g id="a_Node000001"><a xlink:href="class_dealer.html" target="_top" xlink:title="Dealer class Implements dealer&#45;specific logic and display.">
<polygon fill="white" stroke="#666666" points="125.75,-58 81.25,-58 81.25,-38 125.75,-38 125.75,-58"/>
<text text-anchor="middle" x="103.5" y="-44.5" font-family="Helvetica,sans-Serif" font-size="10.00">Dealer</text>
</a>
</g>
</g>
<!-- Node0&#45;&gt;Node1 -->
<g id="edge1_Node000000_Node000001" class="edge">
<title>Node0&#45;&gt;Node1</title>
<g id="a_edge1_Node000000_Node000001"><a xlink:title=" ">
<path fill="none" stroke="#63b8ff" d="M55.14,-36.7C63.78,-38.76 72.91,-40.94 80.83,-42.83"/>
<polygon fill="#63b8ff" stroke="#63b8ff" points="56.22,-33.36 45.69,-34.44 54.6,-40.17 56.22,-33.36"/>
</a>
</g>
</g>
<!-- Node2 -->
<g id="Node000002" class="node">
<title>Node2</title>
<g id="a_Node000002"><a xlink:href="class_human.html" target="_top" xlink:title="Human player class Implements interactive player decisions.">
<polygon fill="white" stroke="#666666" points="127.25,-20 79.75,-20 79.75,0 127.25,0 127.25,-20"/>
<text text-anchor="middle" x="103.5" y="-6.5" font-family="Helvetica,sans-Serif" font-size="10.00">Human</text>
</a>
</g>
</g>
<!-- Node0&#45;&gt;Node2 -->
<g id="edge2_Node000000_Node000002" class="edge">
<title>Node0&#45;&gt;Node2</title>
<g id="a_edge2_Node000000_Node000002"><a xlink:title=" ">
<path fill="none" stroke="#63b8ff" d="M55.24,-21.28C63.34,-19.34 71.88,-17.31 79.43,-15.51"/>
<polygon fill="#63b8ff" stroke="#63b8ff" points="54.6,-17.83 45.69,-23.56 56.22,-24.64 54.6,-17.83"/>
</a>
</g>
</g>
</g>
</svg>
