<?xml version="1.0" encoding="UTF-8" standalone="no"?>
<!DOCTYPE svg PUBLIC "-//W3C//DTD SVG 1.1//EN"
 "http://www.w3.org/Graphics/SVG/1.1/DTD/svg11.dtd">
<!-- Generated by graphviz version 12.2.0 (20241103.1931)
 -->
<!-- Title: main.cpp Pages: 1 -->
<svg width="558pt" height="252pt"
 viewBox="0.00 0.00 557.68 252.00" xmlns="http://www.w3.org/2000/svg" xmlns:xlink="http://www.w3.org/1999/xlink">
<g id="graph0" class="graph" transform="scale(1 1) rotate(0) translate(4 248)">
<title>main.cpp</title>
<!-- Node1 -->
<g id="Node000001" class="node">
<title>Node1</title>
<g id="a_Node000001"><a xlink:title="Main entry point for Blackjack game.">
<polygon fill="#999999" stroke="#666666" points="322.18,-244 266.43,-244 266.43,-224 322.18,-224 322.18,-244"/>
<text text-anchor="middle" x="294.31" y="-230.5" font-family="Helvetica,sans-Serif" font-size="10.00">main.cpp</text>
</a>
</g>
</g>
<!-- Node2 -->
<g id="Node000002" class="node">
<title>Node2</title>
<g id="a_Node000002"><a xlink:title=" ">
<polygon fill="#e0e0e0" stroke="#999999" points="229.56,-188 185.06,-188 185.06,-168 229.56,-168 229.56,-188"/>
<text text-anchor="middle" x="207.31" y="-174.5" font-family="Helvetica,sans-Serif" font-size="10.00">cstdlib</text>
</a>
</g>
</g>
<!-- Node1&#45;&gt;Node2 -->
<g id="edge1_Node000001_Node000002" class="edge">
<title>Node1&#45;&gt;Node2</title>
<g id="a_edge1_Node000001_Node000002"><a xlink:title=" ">
<path fill="none" stroke="#63b8ff" d="M279.15,-223.59C266.26,-215.59 247.48,-203.93 232.35,-194.54"/>
<polygon fill="#63b8ff" stroke="#63b8ff" points="234.21,-191.58 223.86,-189.28 230.52,-197.53 234.21,-191.58"/>
</a>
</g>
</g>
<!-- Node3 -->
<g id="Node000003" class="node">
<title>Node3</title>
<g id="a_Node000003"><a xlink:href="_black_jack_game_8h.html" target="_top" xlink:title="Main game controller class for Blackjack card game.">
<polygon fill="white" stroke="#666666" points="340.93,-188 247.68,-188 247.68,-168 340.93,-168 340.93,-188"/>
<text text-anchor="middle" x="294.31" y="-174.5" font-family="Helvetica,sans-Serif" font-size="10.00">BlackjackGame.h</text>
</a>
</g>
</g>
<!-- Node1&#45;&gt;Node3 -->
<g id="edge2_Node000001_Node000003" class="edge">
<title>Node1&#45;&gt;Node3</title>
<g id="a_edge2_Node000001_Node000003"><a xlink:title=" ">
<path fill="none" stroke="#63b8ff" d="M294.31,-223.59C294.31,-217.01 294.31,-207.96 294.31,-199.73"/>
<polygon fill="#63b8ff" stroke="#63b8ff" points="297.81,-199.81 294.31,-189.81 290.81,-199.81 297.81,-199.81"/>
</a>
</g>
</g>
<!-- Node11 -->
<g id="Node000011" class="node">
<title>Node11</title>
<g id="a_Node000011"><a xlink:title=" ">
<polygon fill="#e0e0e0" stroke="#999999" points="426.06,-20 372.56,-20 372.56,0 426.06,0 426.06,-20"/>
<text text-anchor="middle" x="399.31" y="-6.5" font-family="Helvetica,sans-Serif" font-size="10.00">iostream</text>
</a>
</g>
</g>
<!-- Node1&#45;&gt;Node11 -->
<g id="edge21_Node000001_Node000011" class="edge">
<title>Node1&#45;&gt;Node11</title>
<g id="a_edge21_Node000001_Node000011"><a xlink:title=" ">
<path fill="none" stroke="#63b8ff" d="M322.42,-225.31C377.14,-208.64 496.86,-163.45 545.31,-76 569.38,-32.54 488.36,-18.08 437.47,-13.31"/>
<polygon fill="#63b8ff" stroke="#63b8ff" points="437.96,-9.84 427.7,-12.49 437.38,-16.81 437.96,-9.84"/>
</a>
</g>
</g>
<!-- Node4 -->
<g id="Node000004" class="node">
<title>Node4</title>
<g id="a_Node000004"><a xlink:href="_deck_8h.html" target="_top" xlink:title="Template class for a card deck implementation.">
<polygon fill="white" stroke="#666666" points="385.06,-132 337.56,-132 337.56,-112 385.06,-112 385.06,-132"/>
<text text-anchor="middle" x="361.31" y="-118.5" font-family="Helvetica,sans-Serif" font-size="10.00">Deck.h</text>
</a>
</g>
</g>
<!-- Node3&#45;&gt;Node4 -->
<g id="edge3_Node000003_Node000004" class="edge">
<title>Node3&#45;&gt;Node4</title>
<g id="a_edge3_Node000003_Node000004"><a xlink:title=" ">
<path fill="none" stroke="#63b8ff" d="M305.98,-167.59C315.58,-159.85 329.43,-148.69 340.87,-139.47"/>
<polygon fill="#63b8ff" stroke="#63b8ff" points="343,-142.25 348.59,-133.25 338.61,-136.8 343,-142.25"/>
</a>
</g>
</g>
<!-- Node12 -->
<g id="Node000012" class="node">
<title>Node12</title>
<g id="a_Node000012"><a xlink:href="_player_8h.html" target="_top" xlink:title="Base player class and derived player types for blackjack.">
<polygon fill="white" stroke="#666666" points="250.31,-132 198.31,-132 198.31,-112 250.31,-112 250.31,-132"/>
<text text-anchor="middle" x="224.31" y="-118.5" font-family="Helvetica,sans-Serif" font-size="10.00">Player.h</text>
</a>
</g>
</g>
<!-- Node3&#45;&gt;Node12 -->
<g id="edge11_Node000003_Node000012" class="edge">
<title>Node3&#45;&gt;Node12</title>
<g id="a_edge11_Node000003_Node000012"><a xlink:title=" ">
<path fill="none" stroke="#63b8ff" d="M282.11,-167.59C271.98,-159.77 257.32,-148.46 245.3,-139.19"/>
<polygon fill="#63b8ff" stroke="#63b8ff" points="247.61,-136.56 237.56,-133.22 243.34,-142.1 247.61,-136.56"/>
</a>
</g>
</g>
<!-- Node14 -->
<g id="Node000014" class="node">
<title>Node14</title>
<g id="a_Node000014"><a xlink:href="_save_game_8h.html" target="_top" xlink:title="Game state implementation.">
<polygon fill="white" stroke="#666666" points="74.81,-132 1.81,-132 1.81,-112 74.81,-112 74.81,-132"/>
<text text-anchor="middle" x="38.31" y="-118.5" font-family="Helvetica,sans-Serif" font-size="10.00">SaveGame.h</text>
</a>
</g>
</g>
<!-- Node3&#45;&gt;Node14 -->
<g id="edge17_Node000003_Node000014" class="edge">
<title>Node3&#45;&gt;Node14</title>
<g id="a_edge17_Node000003_Node000014"><a xlink:title=" ">
<path fill="none" stroke="#63b8ff" d="M249.42,-167.53C203.72,-157.89 133.11,-143 86.31,-133.13"/>
<polygon fill="#63b8ff" stroke="#63b8ff" points="87.23,-129.74 76.73,-131.1 85.79,-136.59 87.23,-129.74"/>
</a>
</g>
</g>
<!-- Node16 -->
<g id="Node000016" class="node">
<title>Node16</title>
<g id="a_Node000016"><a xlink:title=" ">
<polygon fill="#e0e0e0" stroke="#999999" points="319.93,-132 268.68,-132 268.68,-112 319.93,-112 319.93,-132"/>
<text text-anchor="middle" x="294.31" y="-118.5" font-family="Helvetica,sans-Serif" font-size="10.00">memory</text>
</a>
</g>
</g>
<!-- Node3&#45;&gt;Node16 -->
<g id="edge20_Node000003_Node000016" class="edge">
<title>Node3&#45;&gt;Node16</title>
<g id="a_edge20_Node000003_Node000016"><a xlink:title=" ">
<path fill="none" stroke="#63b8ff" d="M294.31,-167.59C294.31,-161.01 294.31,-151.96 294.31,-143.73"/>
<polygon fill="#63b8ff" stroke="#63b8ff" points="297.81,-143.81 294.31,-133.81 290.81,-143.81 297.81,-143.81"/>
</a>
</g>
</g>
<!-- Node5 -->
<g id="Node000005" class="node">
<title>Node5</title>
<g id="a_Node000005"><a xlink:title=" ">
<polygon fill="#e0e0e0" stroke="#999999" points="318.81,-76 275.81,-76 275.81,-56 318.81,-56 318.81,-76"/>
<text text-anchor="middle" x="297.31" y="-62.5" font-family="Helvetica,sans-Serif" font-size="10.00">vector</text>
</a>
</g>
</g>
<!-- Node4&#45;&gt;Node5 -->
<g id="edge4_Node000004_Node000005" class="edge">
<title>Node4&#45;&gt;Node5</title>
<g id="a_edge4_Node000004_Node000005"><a xlink:title=" ">
<path fill="none" stroke="#63b8ff" d="M350.16,-111.59C340.98,-103.85 327.75,-92.69 316.82,-83.47"/>
<polygon fill="#63b8ff" stroke="#63b8ff" points="319.38,-81.05 309.48,-77.27 314.87,-86.4 319.38,-81.05"/>
</a>
</g>
</g>
<!-- Node6 -->
<g id="Node000006" class="node">
<title>Node6</title>
<g id="a_Node000006"><a xlink:title=" ">
<polygon fill="#e0e0e0" stroke="#999999" points="536.18,-76 480.43,-76 480.43,-56 536.18,-56 536.18,-76"/>
<text text-anchor="middle" x="508.31" y="-62.5" font-family="Helvetica,sans-Serif" font-size="10.00">algorithm</text>
</a>
</g>
</g>
<!-- Node4&#45;&gt;Node6 -->
<g id="edge5_Node000004_Node000006" class="edge">
<title>Node4&#45;&gt;Node6</title>
<g id="a_edge5_Node000004_Node000006"><a xlink:title=" ">
<path fill="none" stroke="#63b8ff" d="M385.25,-112.2C408.85,-103.54 445.2,-90.18 472.28,-80.23"/>
<polygon fill="#63b8ff" stroke="#63b8ff" points="473.29,-83.59 481.47,-76.86 470.88,-77.02 473.29,-83.59"/>
</a>
</g>
</g>
<!-- Node7 -->
<g id="Node000007" class="node">
<title>Node7</title>
<g id="a_Node000007"><a xlink:title=" ">
<polygon fill="#e0e0e0" stroke="#999999" points="385.43,-76 337.18,-76 337.18,-56 385.43,-56 385.43,-76"/>
<text text-anchor="middle" x="361.31" y="-62.5" font-family="Helvetica,sans-Serif" font-size="10.00">random</text>
</a>
</g>
</g>
<!-- Node4&#45;&gt;Node7 -->
<g id="edge6_Node000004_Node000007" class="edge">
<title>Node4&#45;&gt;Node7</title>
<g id="a_edge6_Node000004_Node000007"><a xlink:title=" ">
<path fill="none" stroke="#63b8ff" d="M361.31,-111.59C361.31,-105.01 361.31,-95.96 361.31,-87.73"/>
<polygon fill="#63b8ff" stroke="#63b8ff" points="364.81,-87.81 361.31,-77.81 357.81,-87.81 364.81,-87.81"/>
</a>
</g>
</g>
<!-- Node8 -->
<g id="Node000008" class="node">
<title>Node8</title>
<g id="a_Node000008"><a xlink:title=" ">
<polygon fill="#e0e0e0" stroke="#999999" points="462.68,-76 403.93,-76 403.93,-56 462.68,-56 462.68,-76"/>
<text text-anchor="middle" x="433.31" y="-62.5" font-family="Helvetica,sans-Serif" font-size="10.00">stdexcept</text>
</a>
</g>
</g>
<!-- Node4&#45;&gt;Node8 -->
<g id="edge7_Node000004_Node000008" class="edge">
<title>Node4&#45;&gt;Node8</title>
<g id="a_edge7_Node000004_Node000008"><a xlink:title=" ">
<path fill="none" stroke="#63b8ff" d="M373.85,-111.59C384.28,-103.77 399.35,-92.46 411.72,-83.19"/>
<polygon fill="#63b8ff" stroke="#63b8ff" points="413.8,-86.01 419.7,-77.21 409.6,-80.41 413.8,-86.01"/>
</a>
</g>
</g>
<!-- Node9 -->
<g id="Node000009" class="node">
<title>Node9</title>
<g id="a_Node000009"><a xlink:href="_card_8h.html" target="_top" xlink:title="Playing card class implementation.">
<polygon fill="white" stroke="#666666" points="257.93,-76 212.68,-76 212.68,-56 257.93,-56 257.93,-76"/>
<text text-anchor="middle" x="235.31" y="-62.5" font-family="Helvetica,sans-Serif" font-size="10.00">Card.h</text>
</a>
</g>
</g>
<!-- Node4&#45;&gt;Node9 -->
<g id="edge8_Node000004_Node000009" class="edge">
<title>Node4&#45;&gt;Node9</title>
<g id="a_edge8_Node000004_Node000009"><a xlink:title=" ">
<path fill="none" stroke="#63b8ff" d="M339.36,-111.59C319.61,-103.13 290.32,-90.58 267.84,-80.94"/>
<polygon fill="#63b8ff" stroke="#63b8ff" points="269.39,-77.8 258.82,-77.08 266.63,-84.23 269.39,-77.8"/>
</a>
</g>
</g>
<!-- Node10 -->
<g id="Node000010" class="node">
<title>Node10</title>
<g id="a_Node000010"><a xlink:title=" ">
<polygon fill="#e0e0e0" stroke="#999999" points="144.31,-20 104.31,-20 104.31,0 144.31,0 144.31,-20"/>
<text text-anchor="middle" x="124.31" y="-6.5" font-family="Helvetica,sans-Serif" font-size="10.00">string</text>
</a>
</g>
</g>
<!-- Node9&#45;&gt;Node10 -->
<g id="edge9_Node000009_Node000010" class="edge">
<title>Node9&#45;&gt;Node10</title>
<g id="a_edge9_Node000009_Node000010"><a xlink:title=" ">
<path fill="none" stroke="#63b8ff" d="M215.97,-55.59C198.89,-47.28 173.7,-35.03 154.05,-25.47"/>
<polygon fill="#63b8ff" stroke="#63b8ff" points="155.68,-22.37 145.15,-21.14 152.61,-28.66 155.68,-22.37"/>
</a>
</g>
</g>
<!-- Node9&#45;&gt;Node11 -->
<g id="edge10_Node000009_Node000011" class="edge">
<title>Node9&#45;&gt;Node11</title>
<g id="a_edge10_Node000009_Node000011"><a xlink:title=" ">
<path fill="none" stroke="#63b8ff" d="M258.11,-57.49C284.8,-48.7 329.4,-34.02 361.34,-23.5"/>
<polygon fill="#63b8ff" stroke="#63b8ff" points="362.22,-26.9 370.62,-20.45 360.03,-20.25 362.22,-26.9"/>
</a>
</g>
</g>
<!-- Node12&#45;&gt;Node5 -->
<g id="edge13_Node000012_Node000005" class="edge">
<title>Node12&#45;&gt;Node5</title>
<g id="a_edge13_Node000012_Node000005"><a xlink:title=" ">
<path fill="none" stroke="#63b8ff" d="M237.02,-111.59C247.7,-103.7 263.19,-92.24 275.79,-82.92"/>
<polygon fill="#63b8ff" stroke="#63b8ff" points="277.56,-85.96 283.52,-77.2 273.4,-80.33 277.56,-85.96"/>
</a>
</g>
</g>
<!-- Node12&#45;&gt;Node9 -->
<g id="edge14_Node000012_Node000009" class="edge">
<title>Node12&#45;&gt;Node9</title>
<g id="a_edge14_Node000012_Node000009"><a xlink:title=" ">
<path fill="none" stroke="#63b8ff" d="M226.22,-111.59C227.58,-104.93 229.45,-95.75 231.14,-87.44"/>
<polygon fill="#63b8ff" stroke="#63b8ff" points="234.54,-88.28 233.11,-77.78 227.68,-86.88 234.54,-88.28"/>
</a>
</g>
</g>
<!-- Node12&#45;&gt;Node10 -->
<g id="edge12_Node000012_Node000010" class="edge">
<title>Node12&#45;&gt;Node10</title>
<g id="a_edge12_Node000012_Node000010"><a xlink:title=" ">
<path fill="none" stroke="#63b8ff" d="M197.83,-118.85C170.7,-115.08 129.82,-104.68 110.31,-76 101.08,-62.44 106.4,-43.92 112.97,-30.12"/>
<polygon fill="#63b8ff" stroke="#63b8ff" points="115.91,-32.05 117.53,-21.58 109.73,-28.75 115.91,-32.05"/>
</a>
</g>
</g>
<!-- Node13 -->
<g id="Node000013" class="node">
<title>Node13</title>
<g id="a_Node000013"><a xlink:href="_player_stats_8h.html" target="_top" xlink:title="Player statistics tracking implementation.">
<polygon fill="white" stroke="#666666" points="194.93,-76 119.68,-76 119.68,-56 194.93,-56 194.93,-76"/>
<text text-anchor="middle" x="157.31" y="-62.5" font-family="Helvetica,sans-Serif" font-size="10.00">PlayerStats.h</text>
</a>
</g>
</g>
<!-- Node12&#45;&gt;Node13 -->
<g id="edge15_Node000012_Node000013" class="edge">
<title>Node12&#45;&gt;Node13</title>
<g id="a_edge15_Node000012_Node000013"><a xlink:title=" ">
<path fill="none" stroke="#63b8ff" d="M212.64,-111.59C203.03,-103.85 189.18,-92.69 177.74,-83.47"/>
<polygon fill="#63b8ff" stroke="#63b8ff" points="180,-80.8 170.02,-77.25 175.61,-86.25 180,-80.8"/>
</a>
</g>
</g>
<!-- Node13&#45;&gt;Node10 -->
<g id="edge16_Node000013_Node000010" class="edge">
<title>Node13&#45;&gt;Node10</title>
<g id="a_edge16_Node000013_Node000010"><a xlink:title=" ">
<path fill="none" stroke="#63b8ff" d="M151.56,-55.59C147.25,-48.55 141.22,-38.67 135.92,-30"/>
<polygon fill="#63b8ff" stroke="#63b8ff" points="138.98,-28.3 130.78,-21.59 133.01,-31.95 138.98,-28.3"/>
</a>
</g>
</g>
<!-- Node14&#45;&gt;Node10 -->
<g id="edge18_Node000014_Node000010" class="edge">
<title>Node14&#45;&gt;Node10</title>
<g id="a_edge18_Node000014_Node000010"><a xlink:title=" ">
<path fill="none" stroke="#63b8ff" d="M27.16,-111.76C12.88,-98.78 -8.61,-74.63 4.31,-56 24.05,-27.52 64.18,-17.04 92.59,-13.19"/>
<polygon fill="#63b8ff" stroke="#63b8ff" points="92.9,-16.68 102.45,-12.09 92.13,-9.72 92.9,-16.68"/>
</a>
</g>
</g>
<!-- Node15 -->
<g id="Node000015" class="node">
<title>Node15</title>
<g id="a_Node000015"><a xlink:title=" ">
<polygon fill="#e0e0e0" stroke="#999999" points="62.81,-76 13.81,-76 13.81,-56 62.81,-56 62.81,-76"/>
<text text-anchor="middle" x="38.31" y="-62.5" font-family="Helvetica,sans-Serif" font-size="10.00">fstream</text>
</a>
</g>
</g>
<!-- Node14&#45;&gt;Node15 -->
<g id="edge19_Node000014_Node000015" class="edge">
<title>Node14&#45;&gt;Node15</title>
<g id="a_edge19_Node000014_Node000015"><a xlink:title=" ">
<path fill="none" stroke="#63b8ff" d="M38.31,-111.59C38.31,-105.01 38.31,-95.96 38.31,-87.73"/>
<polygon fill="#63b8ff" stroke="#63b8ff" points="41.81,-87.81 38.31,-77.81 34.81,-87.81 41.81,-87.81"/>
</a>
</g>
</g>
</g>
</svg>
