<?xml version="1.0" encoding="UTF-8" standalone="no"?>
<!DOCTYPE svg PUBLIC "-//W3C//DTD SVG 1.1//EN"
 "http://www.w3.org/Graphics/SVG/1.1/DTD/svg11.dtd">
<!-- Generated by graphviz version 12.2.0 (20241103.1931)
 -->
<!-- Title: main Pages: 1 -->
<svg width="149pt" height="66pt"
 viewBox="0.00 0.00 148.75 66.00" xmlns="http://www.w3.org/2000/svg" xmlns:xlink="http://www.w3.org/1999/xlink">
<g id="graph0" class="graph" transform="scale(1 1) rotate(0) translate(4 62)">
<title>main</title>
<!-- Node1 -->
<g id="Node000001" class="node">
<title>Node1</title>
<g id="a_Node000001"><a xlink:title="Main program entry point.">
<polygon fill="#999999" stroke="#666666" points="37,-39 0,-39 0,-19 37,-19 37,-39"/>
<text text-anchor="middle" x="18.5" y="-25.5" font-family="Helvetica,sans-Serif" font-size="10.00">main</text>
</a>
</g>
</g>
<!-- Node2 -->
<g id="Node000002" class="node">
<title>Node2</title>
<g id="a_Node000002"><a xlink:href="class_game.html#a9b5d5cc069f5d6f874d8be75ae319d1d" target="_top" xlink:title="Get the single instance of the Game class.">
<polygon fill="white" stroke="#666666" points="137.75,-58 76,-58 76,-38 137.75,-38 137.75,-58"/>
<text text-anchor="middle" x="106.88" y="-44.5" font-family="Helvetica,sans-Serif" font-size="10.00">Game::get</text>
</a>
</g>
</g>
<!-- Node1&#45;&gt;Node2 -->
<g id="edge1_Node000001_Node000002" class="edge">
<title>Node1&#45;&gt;Node2</title>
<g id="a_edge1_Node000001_Node000002"><a xlink:title=" ">
<path fill="none" stroke="#63b8ff" d="M37.4,-32.94C45.35,-34.69 55.08,-36.83 64.67,-38.94"/>
<polygon fill="#63b8ff" stroke="#63b8ff" points="63.76,-42.32 74.28,-41.05 65.26,-35.48 63.76,-42.32"/>
</a>
</g>
</g>
<!-- Node3 -->
<g id="Node000003" class="node">
<title>Node3</title>
<g id="a_Node000003"><a xlink:href="class_game.html#a3d9b98f7c4a96ecf578f75b96c9f0e90" target="_top" xlink:title="Starts a new game session.">
<polygon fill="white" stroke="#666666" points="140.75,-20 73,-20 73,0 140.75,0 140.75,-20"/>
<text text-anchor="middle" x="106.88" y="-6.5" font-family="Helvetica,sans-Serif" font-size="10.00">Game::start</text>
</a>
</g>
</g>
<!-- Node1&#45;&gt;Node3 -->
<g id="edge2_Node000001_Node000003" class="edge">
<title>Node1&#45;&gt;Node3</title>
<g id="a_edge2_Node000001_Node000003"><a xlink:title=" ">
<path fill="none" stroke="#63b8ff" d="M37.4,-25.06C44.47,-23.51 52.95,-21.64 61.49,-19.76"/>
<polygon fill="#63b8ff" stroke="#63b8ff" points="62.15,-23.2 71.16,-17.64 60.64,-16.37 62.15,-23.2"/>
</a>
</g>
</g>
</g>
</svg>
